<?xml version="1.0" encoding="utf-8"?>
<!-- Generator: Adobe Illustrator 21.0.2, SVG Export Plug-In . SVG Version: 6.00 Build 0)  -->
<svg version="1.1" id="Шар_1" xmlns="http://www.w3.org/2000/svg" xmlns:xlink="http://www.w3.org/1999/xlink" x="0px" y="0px"
	 viewBox="0 0 200 240" style="enable-background:new 0 0 200 240;" xml:space="preserve">
<style type="text/css">
	.st0{fill:#68C8F0;}
	.st1{fill:#FFFFFF;}
	.st2{fill:#F3F5F6;}
	.st3{fill:#DBDBDB;}
	.st4{opacity:0.73;fill:#DCDCDC;enable-background:new    ;}
	.st5{fill:#F2F4F5;}
	.st6{fill:#CCC8F0;}
	.st7{fill:#A7A3DB;}
	.st8{fill:#8951E1;}
	.st9{fill:#8D8CEC;}
</style>
<path class="st0" d="M159.2,136.9l-74.7,37.9c-3,1.5-6.7,0.2-8.2-2.8l-20.8-48.4c-1.5-3-0.2-6.7,2.8-8.2L129,82.5
	c3-1.5,6.7-0.2,8.2,2.8l24.8,43.4C163.4,131.7,162.2,135.4,159.2,136.9z"/>
<path class="st1" d="M132.2,77.8c0,0,14.3-7.5,10.1-22.2c-4-14.1,7.1-17.2,12.1-17.2c7.1,0,9.1,5,10.1,8.1
	c7.1,26.3-22.2,48.9-22.2,49.5L132.2,77.8z"/>
<path class="st2" d="M164.5,46.4c-1-3-3-8.1-10.1-8.1c-1.6,0-3.7,0.3-5.8,1.1c0.7-0.1,1.3-0.1,1.8-0.1c7.1,0,9.1,5,10.1,8.1
	c5.5,20.5-11.7,38.7-19.5,46.1l1.3,2.4C142.3,95.4,171.5,72.7,164.5,46.4z"/>
<path class="st1" d="M60.5,131.3c-3-1-13.3,15.4-5,28.3c7.9,12.4,2.8,21.8-2,23.2c-7.1,3-13.1-1-15.1-7.1
	c-9.1-30.3,6.5-51.9,10.8-53.2S63.5,132.3,60.5,131.3z"/>
<path class="st2" d="M49.1,122.5c4.5,2.5,12.6,8.5,10.3,7.8c-3-1-15.3,17.4-7.1,30.3c7.9,12.4,1.8,19.8-3,21.2
	c-1.8,0.8-3.5,1.1-5.1,1c2.6,1.3,5.8,1.4,9.2,0c4.8-1.4,9.9-10.8,2-23.2c-8.2-12.9,2-29.3,5-28.3C63.5,132.3,53.5,121.3,49.1,122.5z
	"/>
<path class="st1" d="M128.6,237.5L128.6,237.5c-5.8,1.8-12-1.5-13.8-7.3l-17-55.3c-1.8-5.8,1.5-12,7.3-13.8l0,0
	c5.8-1.8,12,1.5,13.8,7.3l17,55.3C137.8,229.5,134.5,235.7,128.6,237.5z"/>
<path class="st1" d="M173.3,215.7L173.3,215.7c-5.3,3-12.1,1.2-15.1-4.1l-28.9-50.1c-3-5.3-1.2-12.1,4.1-15.1l0,0
	c5.3-3,12.1-1.2,15.1,4.1l28.9,50.1C180.4,205.9,178.5,212.7,173.3,215.7z"/>
<path class="st3" d="M99,178.6l21-7l-1-3.3c-1.8-5.8-8-9.1-13.8-7.3l0,0c-5.8,1.8-9.1,8-7.3,13.8L99,178.6z"/>
<path class="st3" d="M130.5,163.7l19.1-11.2l-1.5-3c-2.7-5.4-8.4-6.7-13.8-4l0,0c-5.4,2.7-8.2,9.3-5.5,14.7L130.5,163.7z"/>
<path class="st1" d="M156,146.3l-63.8,31.5c-3.6,1.8-8,0.3-9.8-3.3l-30.8-62.3c-1.8-3.6-0.3-8,3.3-9.8l63.8-31.5
	c3.6-1.8,8-0.3,9.8,3.3l30.8,62.3C161.1,140.1,159.6,144.5,156,146.3z"/>
<path class="st2" d="M128.5,74.2c-1.8-3.6-6.2-5.1-9.8-3.3l-23,11.3l32.2,78l28.1-13.9c3.6-1.8,5.1-6.2,3.3-9.8L128.5,74.2z"/>
<path class="st4" d="M128.7,74.5l-0.2-0.3c-1.8-3.6-6.2-5.1-9.8-3.3l-63.8,31.5c-3.6,1.8-5.1,6.2-3.3,9.8l3.2,6.6
	c4.3,0.9,8.7,1.4,13.2,1.4C96.8,120.2,121.1,100.9,128.7,74.5z"/>
<circle class="st1" cx="65.5" cy="53.5" r="53.5"/>
<path class="st5" d="M73.8,0.6c-0.1,0-0.2,0-0.3,0c-0.8-0.1-1.6-0.2-2.5-0.3c0,0-0.1,0-0.1,0c-0.8-0.1-1.7-0.1-2.5-0.2
	c0,0-0.1,0-0.1,0C67.3,0,66.4,0,65.5,0c-3.7,0-7.3,0.4-10.7,1.1c-0.1,0-0.1,0-0.2,0c-0.8,0.2-1.7,0.4-2.5,0.6c0,0-0.1,0-0.1,0
	c-0.7,0.2-1.5,0.4-2.2,0.6c-0.2,0-0.3,0.1-0.5,0.1c-0.5,0.2-1.1,0.4-1.6,0.5c27.8,32.3,43.9,69.7,48.5,94.2
	c4.1-2.9,7.8-6.3,10.9-10.2c0,0,0,0,0,0c0.5-0.6,1-1.2,1.4-1.9c0.1-0.1,0.2-0.3,0.3-0.4c0.4-0.5,0.7-1,1.1-1.6
	c0.2-0.3,0.4-0.6,0.6-0.9c0.2-0.4,0.5-0.8,0.7-1.2c0.3-0.5,0.6-1,0.9-1.5c0.1-0.2,0.2-0.4,0.4-0.6c4.1-7.6,6.4-16.2,6.4-25.4
	C119,26.8,99.4,4.6,73.8,0.6z"/>
<circle class="st6" cx="70.1" cy="60.1" r="39.9"/>
<path class="st7" d="M92.3,27c7.7,7.3,12.6,17.6,12.6,29.1C104.9,78.1,87,96,65,96c-8.2,0-15.9-2.5-22.2-6.8
	c7.1,6.7,16.7,10.8,27.3,10.8c22,0,39.9-17.9,39.9-39.9C109.9,46.3,102.9,34.1,92.3,27z"/>
<path class="st8" d="M65.5,141.4l-0.4,0.2c-3.1,1.5-6.9,0.2-8.4-2.9L45.8,117c-1.5-3.1-0.2-6.9,2.9-8.4l0.4-0.2
	c3.1-1.5,6.9-0.2,8.4,2.9L68.3,133C69.8,136.1,68.6,139.9,65.5,141.4z"/>
<path class="st8" d="M140.2,101l-0.4,0.2c-3.1,1.5-6.9,0.2-8.4-2.9l-10.8-21.8c-1.5-3.1-0.2-6.9,2.9-8.4l0.4-0.2
	c3.1-1.5,6.9-0.2,8.4,2.9L143,92.6C144.6,95.7,143.3,99.5,140.2,101z"/>
<path class="st9" d="M128,199.5l-19.7,6.1c-1.5,0.5-3.2-0.4-3.6-1.9l-0.3-0.9c-0.5-1.5,0.4-3.2,1.9-3.6l19.7-6.1
	c1.5-0.5,3.2,0.4,3.6,1.9l0.3,0.9C130.4,197.4,129.5,199,128,199.5z"/>
<path class="st9" d="M164,179.5l-17.5,11c-1.3,0.8-3.1,0.4-4-0.9l-0.5-0.8c-0.8-1.3-0.4-3.1,0.9-4l17.5-11c1.3-0.8,3.1-0.4,4,0.9
	l0.5,0.8C165.8,176.9,165.3,178.6,164,179.5z"/>
</svg>
