<?xml version="1.0" encoding="utf-8"?>
<!-- Generator: Adobe Illustrator 21.0.2, SVG Export Plug-In . SVG Version: 6.00 Build 0)  -->
<svg version="1.1" id="Шар_1" xmlns="http://www.w3.org/2000/svg" xmlns:xlink="http://www.w3.org/1999/xlink" x="0px" y="0px"
	 viewBox="0 0 200 240" style="enable-background:new 0 0 200 240;" xml:space="preserve">
<style type="text/css">
	.st0{fill:#7DE8EE;}
	.st1{display:none;}
	.st2{display:inline;fill:#6225C9;}
	.st3{display:inline;fill:#5319AF;}
	.st4{fill:#6225C9;}
	.st5{fill:#5319AF;}
	.st6{fill:#461E91;}
	.st7{opacity:0.9;fill:#461E91;enable-background:new    ;}
	.st8{fill:#59199B;}
	.st9{fill:#20124A;}
	.st10{fill:#DE328E;}
	.st11{fill:#8781E0;}
</style>
<path class="st0" d="M159.2,136.9l-74.7,37.9c-3,1.5-6.7,0.2-8.2-2.8l-20.8-48.4c-1.5-3-0.2-6.7,2.8-8.2L129,82.5
	c3-1.5,6.7-0.2,8.2,2.8l24.8,43.4C163.4,131.7,162.2,135.4,159.2,136.9z"/>
<g class="st1">
	<path class="st2" d="M126.4,82.5c0,0,24.8-17.4,17.1-32.8c-6.1-13.7,4.9-17.2,9.9-17.2c7.1,0,9.1,5,10.1,8.1
		c7.1,26.3-30.2,56.9-30.2,57.5L126.4,82.5z"/>
	<path class="st3" d="M163.5,40.5c-1-3-3-8.1-10.1-8.1c-1.6,0-3.7,0.6-5.8,1.4c0.7-0.1,1.3-0.4,1.8-0.4c7.1,0,9.1,5,10.1,8.1
		C165,62,139.8,88.2,132,95.6l1.3,2.4C133.3,97.5,170.5,66.8,163.5,40.5z"/>
</g>
<path class="st4" d="M60.5,131.3c-3-1-13.3,15.4-5,28.3c7.9,12.4,2.8,21.8-2,23.2c-7.1,3-13.1-1-15.1-7.1
	c-9.1-30.3,6.5-51.9,10.8-53.2S63.5,132.3,60.5,131.3z"/>
<path class="st5" d="M49.1,122.5c4.5,2.5,12.6,8.5,10.3,7.8c-3-1-15.3,17.4-7.1,30.3c7.9,12.4,1.8,19.8-3,21.2
	c-1.8,0.8-3.5,1.1-5.1,1c2.6,1.3,5.8,1.4,9.2,0c4.8-1.4,9.9-10.8,2-23.2c-8.2-12.9,2-29.3,5-28.3C63.5,132.3,53.5,121.3,49.1,122.5z
	"/>
<path class="st4" d="M128.6,237.5L128.6,237.5c-5.8,1.8-12-1.5-13.8-7.3l-17-55.3c-1.8-5.8,1.5-12,7.3-13.8l0,0
	c5.8-1.8,12,1.5,13.8,7.3l17,55.3C137.8,229.5,134.5,235.7,128.6,237.5z"/>
<path class="st4" d="M173.3,215.7L173.3,215.7c-5.3,3-12.1,1.2-15.1-4.1l-28.9-50.1c-3-5.3-1.2-12.1,4.1-15.1l0,0
	c5.3-3,12.1-1.2,15.1,4.1l28.9,50.1C180.4,205.9,178.5,212.7,173.3,215.7z"/>
<path class="st6" d="M99,178.6l21-7l-1-3.3c-1.8-5.8-8-9.1-13.8-7.3l0,0c-5.8,1.8-9.1,8-7.3,13.8L99,178.6z"/>
<path class="st6" d="M130.9,163.9l18.6-11.3l-1.5-3c-2.7-5.4-8.4-6.7-13.8-4l0,0c-5.4,2.7-8.7,8.4-6,13.8L130.9,163.9z"/>
<path class="st4" d="M156,146.3l-63.8,31.5c-3.6,1.8-8,0.3-9.8-3.3l-30.8-62.3c-1.8-3.6-0.3-8,3.3-9.8l63.8-31.5
	c3.6-1.8,8-0.3,9.8,3.3l30.8,62.3C161.1,140.1,159.6,144.5,156,146.3z"/>
<path class="st5" d="M128.5,74.2c-1.8-3.6-6.2-5.1-9.8-3.3l-23,11.3l32.2,78l28.1-13.9c3.6-1.8,5.1-6.2,3.3-9.8L128.5,74.2z"/>
<path class="st7" d="M128.7,74.5l-0.2-0.3c-1.8-3.6-6.2-5.1-9.8-3.3l-63.8,31.5c-3.6,1.8-5.1,6.2-3.3,9.8l3.2,6.6
	c4.3,0.9,8.7,1.4,13.2,1.4C96.8,120.2,121.1,100.9,128.7,74.5z"/>
<circle class="st4" cx="67.5" cy="54.5" r="53.5"/>
<path class="st5" d="M121,53.6c0-0.5,0-1,0-1.5c0-0.4-0.1-0.7-0.1-1.1c0-0.6-0.1-1.2-0.1-1.7c0-0.1,0-0.2,0-0.3
	C118.2,24.8,99.5,5.5,75.7,1.8l0,0c-0.9-0.1-1.7-0.2-2.6-0.3H73c-0.8-0.1-1.6-0.1-2.3-0.2c-0.1,0-0.3,0-0.4,0
	c-1-0.1-1.8-0.1-2.6-0.1c-0.2,0-0.3,0-0.5,0c-0.8,0-1.6,0-2.4,0.1c-0.1,0-0.3,0-0.4,0c-0.7,0-1.4,0.1-2.1,0.2c-0.2,0-0.3,0-0.5,0
	c-0.7,0.1-1.4,0.2-2.1,0.3c-0.3,0-0.6,0.1-0.9,0.1C58.2,2,57.6,2.1,57,2.2c-0.4,0.1-0.7,0.2-1.1,0.2c-0.3,0.1-0.6,0.1-1,0.2
	c-0.7,0.2-1.3,0.3-2,0.5c-0.2,0.1-0.4,0.1-0.6,0.2c-0.9,0.3-1.8,0.5-2.7,0.9l0,0c27.8,32.3,43.9,69.7,48.5,94.2l0,0
	c2.7-1.9,5.3-4.1,7.6-6.5l0,0c0.6-0.6,1.1-1.2,1.7-1.8l0,0c0.5-0.6,1.1-1.2,1.6-1.9c0,0,0,0,0.1-0.1c0.5-0.6,1-1.3,1.5-1.9l0.1-0.1
	c0.5-0.6,0.9-1.3,1.3-1.9c0-0.1,0.1-0.1,0.1-0.2c0.4-0.6,0.8-1.3,1.2-1.9c0-0.1,0.1-0.2,0.1-0.2c0.4-0.6,0.7-1.3,1.1-1.9
	c0.1-0.1,0.1-0.2,0.2-0.3c0.3-0.6,0.7-1.3,1-1.9c0.1-0.1,0.1-0.3,0.2-0.4c0.3-0.6,0.6-1.3,0.9-1.9c0.1-0.2,0.1-0.3,0.2-0.5
	c0.3-0.6,0.5-1.3,0.7-1.9c0.1-0.2,0.1-0.4,0.2-0.6c0.2-0.6,0.4-1.2,0.6-1.9c0.1-0.2,0.1-0.4,0.2-0.6c0.2-0.6,0.4-1.2,0.5-1.8
	c0.1-0.2,0.1-0.5,0.2-0.7c0.1-0.6,0.3-1.2,0.4-1.8c0.1-0.3,0.1-0.5,0.1-0.8c0.2-0.9,0.3-1.8,0.4-2.7c0.1-0.6,0.2-1.1,0.2-1.7
	c0-0.3,0.1-0.7,0.1-1c0-0.5,0.1-1.1,0.1-1.6c0-0.4,0-0.7,0-1.1c0-0.5,0-1.1,0-1.6C121,54.4,121,54,121,53.6z"/>
<circle class="st8" cx="72.1" cy="61.1" r="39.9"/>
<path class="st9" d="M94.3,28c7.7,7.3,12.6,17.6,12.6,29.1C106.9,79.1,89,97,67,97c-8.2,0-15.9-2.5-22.2-6.8
	c7.1,6.7,16.7,10.8,27.3,10.8c22,0,39.9-17.9,39.9-39.9C111.9,47.3,104.9,35.1,94.3,28z"/>
<path class="st10" d="M65.5,141.4l-0.4,0.2c-3.1,1.5-6.9,0.2-8.4-2.9L45.8,117c-1.5-3.1-0.2-6.9,2.9-8.4l0.4-0.2
	c3.1-1.5,6.9-0.2,8.4,2.9L68.3,133C69.8,136.1,68.6,139.9,65.5,141.4z"/>
<path class="st10" d="M140.2,101l-0.4,0.2c-3.1,1.5-6.9,0.2-8.4-2.9l-10.8-21.8c-1.5-3.1-0.2-6.9,2.9-8.4l0.4-0.2
	c3.1-1.5,6.9-0.2,8.4,2.9L143,92.6C144.6,95.7,143.3,99.5,140.2,101z"/>
<path class="st11" d="M128,199.5l-19.7,6.1c-1.5,0.5-3.2-0.4-3.6-1.9l-0.3-0.9c-0.5-1.5,0.4-3.2,1.9-3.6l19.7-6.1
	c1.5-0.5,3.2,0.4,3.6,1.9l0.3,0.9C130.4,197.4,129.5,199,128,199.5z"/>
<path class="st11" d="M164,179.5l-17.5,11c-1.3,0.8-3.1,0.4-4-0.9l-0.5-0.8c-0.8-1.3-0.4-3.1,0.9-4l17.5-11c1.3-0.8,3.1-0.4,4,0.9
	l0.5,0.8C165.8,176.9,165.3,178.6,164,179.5z"/>
</svg>
