<?xml version="1.0" encoding="utf-8"?>
<!-- Generator: Adobe Illustrator 21.0.2, SVG Export Plug-In . SVG Version: 6.00 Build 0)  -->
<svg version="1.1" id="Шар_1" xmlns="http://www.w3.org/2000/svg" xmlns:xlink="http://www.w3.org/1999/xlink" x="0px" y="0px"
	 viewBox="0 0 440 440" style="enable-background:new 0 0 440 440;" xml:space="preserve">
<style type="text/css">
	.st0{opacity:0.33;fill:url(#Еліпс_8_копія_2_1_);enable-background:new    ;}
	.st1{opacity:0.65;fill:url(#Еліпс_8_копія_1_);enable-background:new    ;}
	.st2{fill:url(#Еліпс_8_1_);}
	.st3{opacity:0.1;fill:url(#SVGID_1_);enable-background:new    ;}
	.st4{opacity:0.1;fill:url(#SVGID_2_);enable-background:new    ;}
	.st5{opacity:0.1;fill:url(#SVGID_3_);enable-background:new    ;}
	.st6{opacity:0.15;fill:url(#SVGID_4_);enable-background:new    ;}
	.st7{opacity:0.15;fill:url(#SVGID_5_);enable-background:new    ;}
	.st8{opacity:0.15;fill:url(#SVGID_6_);enable-background:new    ;}
	.st9{opacity:0.8;fill:url(#SVGID_7_);enable-background:new    ;}
	.st10{opacity:0.8;fill:url(#SVGID_8_);enable-background:new    ;}
	.st11{opacity:0.8;fill:url(#SVGID_9_);enable-background:new    ;}
</style>
<linearGradient id="Еліпс_8_копія_2_1_" gradientUnits="userSpaceOnUse" x1="347.017" y1="442" x2="92.983" y2="2" gradientTransform="matrix(1 0 0 -1 0 442)">
	<stop  offset="0" style="stop-color:#6E12E0"/>
	<stop  offset="0.8426" style="stop-color:#6E12E0;stop-opacity:0"/>
</linearGradient>
<circle id="Еліпс_8_копія_2" class="st0" cx="220" cy="220" r="220"/>
<linearGradient id="Еліпс_8_копія_1_" gradientUnits="userSpaceOnUse" x1="334.47" y1="21" x2="103.53" y2="421" gradientTransform="matrix(1 0 0 -1 0 442)">
	<stop  offset="0.2141" style="stop-color:#FF00AE;stop-opacity:0"/>
	<stop  offset="0.458" style="stop-color:#FF00AE"/>
	<stop  offset="0.752" style="stop-color:#770DC5"/>
	<stop  offset="0.861" style="stop-color:#4512CD"/>
</linearGradient>
<circle id="Еліпс_8_копія" class="st1" cx="219" cy="221" r="200"/>
<linearGradient id="Еліпс_8_1_" gradientUnits="userSpaceOnUse" x1="36.1" y1="186.944" x2="403.1" y2="251.656" gradientTransform="matrix(1 0 0 -1 0 442)">
	<stop  offset="0" style="stop-color:#421FF2"/>
	<stop  offset="1" style="stop-color:#7135F8"/>
</linearGradient>
<circle id="Еліпс_8" class="st2" cx="219.6" cy="222.7" r="183.5"/>
<g>
	<linearGradient id="SVGID_1_" gradientUnits="userSpaceOnUse" x1="132.6358" y1="50.5592" x2="132.6358" y2="114.3474">
		<stop  offset="0" style="stop-color:#9D5AF9"/>
		<stop  offset="1" style="stop-color:#BA83F2"/>
	</linearGradient>
	<path class="st3" d="M110.3,96.4c5,15.3,15.2,19.5,25.9,17.5c10-1.9,5.8-18.2,10.9-28c5.5-10.5,19.9-15.2,18-23.3
		c-1.5-6.1-4.6-10-9.2-12c-20.6,7.6-39.5,18.9-55.9,33C103.7,85.1,107.6,88,110.3,96.4z"/>
	<linearGradient id="SVGID_2_" gradientUnits="userSpaceOnUse" x1="132.6742" y1="131.7305" x2="132.6742" y2="396.3545">
		<stop  offset="0" style="stop-color:#9D5AF9"/>
		<stop  offset="1" style="stop-color:#BA83F2"/>
	</linearGradient>
	<path class="st4" d="M223.4,396.1c5-1.2-12.5-3-15.4-12.8c-3-10.1,2.7-16.1,4.6-19.7c15.8-30.6,18.9-46,15.4-60.4
		c-1.9-8-6.1-12.3-12-15.7c-8.7-5-21.1-6.8-31.5-6.9c-16.9-0.2-30.4-0.3-40.1-3.8c-25.3-9.1-42.5,6.8-44.7,25.1
		c-17.3-5.8-60.7-14.8-58-40.6c2-19.6,21-6.2,31.5-18.9c10.4-12.5-4.4-27.8,5-39.4c13.6-16.8,39.1-8.2,43.3-30
		c8.3-43.2-40.7-41.3-51.2-41.4c-8.4-0.1,7.1,9.4,6.6,20.6c-0.6,11.2-12.9,25.1-17.7,23.3c-6.1-2.3-10.9-5.2-14.6-8.4
		c-5.5,17.5-8.5,36.1-8.5,55.4c0,24.9,5,48.7,14,70.4c17.7,6.6,37.3,9.8,49.6,8.9c-1.2,10.4,2.5,21.4,12.3,29.1
		c13.2,10.2,21.8,2.6,39.7,19.4C174.4,371.8,211,399.1,223.4,396.1z"/>
	<linearGradient id="SVGID_3_" gradientUnits="userSpaceOnUse" x1="301.6628" y1="41.1257" x2="301.6628" y2="324.043">
		<stop  offset="0" style="stop-color:#9D5AF9"/>
		<stop  offset="1" style="stop-color:#BA83F2"/>
	</linearGradient>
	<path class="st5" d="M250.8,41.9c-1.5-0.3-3.1-0.5-4.6-0.7c-2.7,1.4-19.2,15.5-14,29.3c6.1,16,21.2,21.2,18.9,20
		c3.2,1.7,6.9,4.3,10.5,4.4c8.6,0.4,8.3-25,14.7-10.8c1.9,4.2-17,17.9-18.3,30c-0.7,6.5,6.6,9.7,7.8,15.4
		c1.6,7.5-17.6-0.7-16.1,13.6c0.8,7.5,8.8,14,14.2,11.3c16-7.8,15.2-35.5,23.5-41.8c8.1-6.1,29.9,27.3,40.9,7.4
		c3.1-5.7,11.9,11.1,15.8,15.2c6.4,6.8-13.2,4.3-14.2,4.3c-16.9-0.2-28.4-1.9-57.7,12.8h0c-35.4,17.8-33.1,72-1.3,84.9
		c40.5,16.4,41.5-2.7,51.5,4.1c25.7,17.7-10.4,71.5,6.3,82c4.3,2.7,4.2-4.4,11-9.9c15.6-12.6,29.1-58.2,30.3-67.1
		C388.9,106.7,275.6,49.4,250.8,41.9z"/>
</g>
<g>
	<linearGradient id="SVGID_4_" gradientUnits="userSpaceOnUse" x1="145.1738" y1="54.1348" x2="145.1738" y2="120.7061">
		<stop  offset="0" style="stop-color:#CE64F8"/>
		<stop  offset="1" style="stop-color:#F34FC7"/>
	</linearGradient>
	<path class="st6" d="M142.7,58c-12.3,3.7-34.9,15.6-34.7,24.1c0.3,14.6,13.6,1.8,21.4,21.9c5.8,15,16.3,18.6,26.8,16
		c9.9-2.5,4.7-18.5,9.3-28.6c4.9-10.8,19-16.3,16.6-24.2C177.5,51.7,162.9,51.9,142.7,58z"/>
	<linearGradient id="SVGID_5_" gradientUnits="userSpaceOnUse" x1="148.365" y1="97.4693" x2="148.365" y2="397.0724">
		<stop  offset="0" style="stop-color:#CE64F8"/>
		<stop  offset="1" style="stop-color:#F34FC7"/>
	</linearGradient>
	<path class="st7" d="M259.5,396.7c4.9-1.5-12.7-2.2-16.1-11.9c-3.5-9.9,1.8-16.3,3.4-19.9c14-31.5,16.2-47,11.9-61.2
		c-2.4-7.8-6.8-12-12.9-15c-9-4.5-21.4-5.5-31.9-5.1c-16.9,0.8-30.4,1.4-40.2-1.5c-25.8-7.6-42.1,9.3-43.2,27.6
		c-17.6-4.8-61.4-11.3-60.3-37.2c0.9-19.6,20.6-7.4,30.4-20.7c9.6-13.1-5.9-27.5,2.7-39.6c12.6-17.5,38.6-10.4,41.5-32.4
		c5.8-43.6-43-38.9-53.4-38.4c-8.4,0.4,7.7,9,7.7,20.2c0.1,11.3-11.4,25.8-16.3,24.3c-29-9.1-29.4-31.8-24.7-40.7
		c10.9-20.4,33.8-44.9,27.3-47.8c-30.6,32.8-49.4,76.8-49.4,125.2c0,22.2,3.9,43.5,11.2,63.1c18.3,18.6,62.2,26.8,83.2,24
		c-0.6,10.4,3.7,21.2,13.9,28.3c13.7,9.5,21.9,1.3,40.7,17C209.1,375.2,247.3,400.4,259.5,396.7z"/>
	<linearGradient id="SVGID_6_" gradientUnits="userSpaceOnUse" x1="323.0681" y1="43.4445" x2="323.0681" y2="318.6187">
		<stop  offset="0" style="stop-color:#CE64F8"/>
		<stop  offset="1" style="stop-color:#F34FC7"/>
	</linearGradient>
	<path class="st8" d="M360.4,318.1c4.5,2.5,4-4.6,10.5-10.5c14.8-13.5,25.7-59.8,26.4-68.7c6-78.3-27.4-128.7-62.5-159.1
		C313,62.3,287.2,49.6,259,43.4c-5.2,5.1-14.2,16.8-9.4,27.6c7,15.6,22.4,19.9,20,18.9c3.3,1.5,7.1,3.9,10.7,3.8
		c8.6-0.1,6.8-25.5,14-11.6c2.1,4.1-15.9,18.8-16.6,31c-0.4,6.6,7.2,9.3,8.7,14.9c2,7.4-17.6,0.3-15.3,14.5
		c1.2,7.4,9.6,13.5,14.8,10.5c15.6-8.7,13.1-36.4,21-43c7.8-6.6,31.5,25.6,41.3,5c2.8-5.9,12.5,10.4,16.6,14.3
		c6.8,6.4-12.9,5.1-13.9,5.1c-16.9,0.8-28.5-0.3-56.9,16.1c-34.3,19.8-28.9,73.7,3.6,84.8c41.4,14.1,41.3-5.1,51.7,1.2
		C376.1,252.7,343.1,308.6,360.4,318.1z"/>
</g>
<g>
	<linearGradient id="SVGID_7_" gradientUnits="userSpaceOnUse" x1="340.707" y1="357.686" x2="340.707" y2="63.5562">
		<stop  offset="0" style="stop-color:#7B71FF"/>
		<stop  offset="1" style="stop-color:#2DF4F8"/>
	</linearGradient>
	<path class="st9" d="M342.2,86.2c-9.5-8.6-20-16.2-31.1-22.6c-0.1,0-0.3-0.1-0.4-0.1c-1.4-0.1-22.4,10.7-19.9,26
		c2.8,16.9,16.5,25,14.5,23.3c2.8,2.3,5.9,5.6,9.4,6.4c8.3,2.1,13.1-22.9,16.5-7.6c1,4.5-20.2,14.1-23.9,25.7
		c-2,6.3,4.6,10.8,4.6,16.7c0,7.6-17.1-4.2-18.5,10.1c-0.7,7.5,5.8,15.4,11.7,13.9c17.3-4.4,22-31.8,31.3-36.2
		c9.2-4.4,23.9,32.8,38.6,15.4c4.2-5,9.5,13.2,12.4,18.1c4.9,8-13.8,1.6-14.8,1.4c-16.5-3.5-27.5-7.5-59.1,1
		c-38.2,10.3-46.8,63.9-18.2,82.9c36.4,24.2,41.2,5.6,49.6,14.4c21.7,22.4-24.5,68-10.2,81.6c3.7,3.5,5-3.4,12.8-7.5
		c14.8-7.6,32.6-37.8,40-52.7c1.8-4.1,3.4-8.2,4.9-12.4C424,186.6,377.1,119,342.2,86.2z"/>
	<linearGradient id="SVGID_8_" gradientUnits="userSpaceOnUse" x1="188.6949" y1="112.91" x2="188.6949" y2="49.5107">
		<stop  offset="0" style="stop-color:#7B71FF"/>
		<stop  offset="1" style="stop-color:#2DF4F8"/>
	</linearGradient>
	<path class="st10" d="M190.9,49.6C178,50,153.2,55.8,151.2,64c-3.4,14.2,12.6,5.2,15.1,26.6c1.8,16,11,22.2,21.8,22.3
		c10.2,0.1,9.3-16.7,16.3-25.3c7.5-9.2,22.6-10.9,22.3-19.2C226.1,52.4,212,48.9,190.9,49.6z"/>
	<linearGradient id="SVGID_9_" gradientUnits="userSpaceOnUse" x1="138.1614" y1="406.1785" x2="138.1614" y2="72.033">
		<stop  offset="0" style="stop-color:#7B71FF"/>
		<stop  offset="1" style="stop-color:#2DF4F8"/>
	</linearGradient>
	<path class="st11" d="M240.2,316.8c-0.3-8.2-3.5-13.3-8.6-17.8c-7.5-6.6-19.3-10.8-29.5-13c-16.5-3.5-29.7-6.4-38.5-11.7
		c-23-14-43-1.8-48.8,15.6C99,280.8,58.2,263.2,66,238.5c5.9-18.8,21.8-1.9,34.7-12.2c12.7-10.2,1.3-28.1,12.8-37.6
		c16.7-13.7,40-0.2,48.4-20.7c16.8-40.6-31.6-48.6-41.9-50.7c-8.2-1.8,5.1,10.7,2.3,21.5c-2.8,10.9-17.6,22.1-22,19.3
		c-25.7-16.2-20.3-38.3-13.5-45.7c19.2-20.7,57.3-42.6,29.6-40.2c-4.5,2.5-8.7,5.3-12.8,8.2c-41.2,33.6-67.6,84.9-67.6,142.2
		c0,4.3,0.2,8.6,0.5,12.9c0.1,0.3,0.2,0.6,0.3,0.9c5.7,26.4,54.1,50.4,77.9,53.5c-3.2,9.9-1.8,21.5,6.3,30.9
		c10.9,12.7,20.8,6.9,35,26.9c16.3,23,42.6,52.9,57,58.3c1.6,0.1,3.3,0.1,4.9,0.1c-1.8-1.8-12.6-6.7-13.3-14.9
		c-0.9-10.5,5.9-15.3,8.4-18.3C234.6,346.1,240.7,331.7,240.2,316.8z"/>
</g>
</svg>
