<?xml version="1.0" encoding="utf-8"?>
<!-- Generator: Adobe Illustrator 21.0.2, SVG Export Plug-In . SVG Version: 6.00 Build 0)  -->
<svg version="1.1"
	 id="svg8334" inkscape:version="0.91 r13725" xmlns:cc="http://creativecommons.org/ns#" xmlns:dc="http://purl.org/dc/elements/1.1/" xmlns:inkscape="http://www.inkscape.org/namespaces/inkscape" xmlns:rdf="http://www.w3.org/1999/02/22-rdf-syntax-ns#" xmlns:sodipodi="http://sodipodi.sourceforge.net/DTD/sodipodi-0.dtd" xmlns:svg="http://www.w3.org/2000/svg"
	 xmlns="http://www.w3.org/2000/svg" xmlns:xlink="http://www.w3.org/1999/xlink" x="0px" y="0px" viewBox="0 0 114.1 20"
	 style="enable-background:new 0 0 114.1 20;" xml:space="preserve">
<style type="text/css">
	.st0{fill:#CFCFCF;}
</style>
<sodipodi:namedview  bordercolor="#666666" borderopacity="1" gridtolerance="10" guidetolerance="10" id="namedview8336" inkscape:pageopacity="0" inkscape:pageshadow="2" inkscape:window-height="480" inkscape:window-width="640" objecttolerance="10" pagecolor="#ffffff">
	</sodipodi:namedview>
<inkscape:clipboard  max="-24.28352,-2223.704" min="-138.41602,-2243.7127" style="color:#000000;clip-rule:nonzero;display:inline;overflow:visible;visibility:visible;opacity:1;isolation:auto;mix-blend-mode:normal;color-interpolation:sRGB;color-interpolation-filters:linearRGB;solid-color:#000000;solid-opacity:1;fill:#000000;fill-opacity:1;fill-rule:nonzero;stroke-width:1;stroke-linecap:butt;stroke-linejoin:miter;stroke-miterlimit:4;stroke-dasharray:none;stroke-dashoffset:0;stroke-opacity:1;filter-blend-mode:normal;filter-gaussianBlur-deviation:0;color-rendering:auto;image-rendering:auto;shape-rendering:auto;text-rendering:auto;enable-background:accumulate">
	</inkscape:clipboard>
<g id="g8309" transform="translate(138.41602,-3276.0662)">
	<g id="g17491" transform="matrix(1.25,0,0,-1.25,-122.22852,3278.2087)">
		<path id="path17493" inkscape:connector-curvature="0" class="st0" d="M0,0c-0.1-0.1-0.2-0.2-0.3-0.3c-1.7-1.5-2.8-3.6-2.8-6
			s1.1-4.6,2.8-6c0.1-0.1,0.2-0.2,0.3-0.2c0.1,0.1,0.2,0.2,0.3,0.2c1.7,1.5,2.8,3.6,2.8,6S2-1.7,0.3-0.3C0.2-0.2,0.1-0.1,0,0
			 M4.9,1.7c-1.6,0-3.2-0.5-4.4-1.3c0.1-0.1,0.1-0.1,0.2-0.2c1.9-1.6,3-4,3-6.5s-1.1-4.9-3-6.5c-0.1-0.1-0.1-0.1-0.2-0.2
			c1.3-0.8,2.8-1.3,4.4-1.3c4.4,0,8,3.6,8,8S9.4,1.7,4.9,1.7 M-0.7-12.8c0.1-0.1,0.1-0.1,0.2-0.2c-1.3-0.8-2.8-1.3-4.4-1.3
			c-4.4,0-8,3.6-8,8s3.6,8,8,8c1.6,0,3.2-0.5,4.4-1.3c-0.1-0.1-0.1-0.1-0.2-0.2c-1.9-1.6-3-4-3-6.5S-2.6-11.2-0.7-12.8 M28.9-6.3
			c0,0.9,0.6,1.7,1.6,1.7c1,0,1.6-0.7,1.6-1.7S31.5-8,30.5-8C29.5-8,28.9-7.3,28.9-6.3 M33.2-6.3v2.7h-1.2v-0.6
			c-0.4,0.5-0.9,0.8-1.7,0.8c-1.5,0-2.7-1.2-2.7-2.8c0-1.6,1.2-2.8,2.7-2.8c0.8,0,1.3,0.3,1.7,0.8V-9h1.2V-6.3z M72.3-6.3
			c0,0.9,0.6,1.7,1.6,1.7c1,0,1.6-0.7,1.6-1.7S74.9-8,74-8C73-8,72.3-7.3,72.3-6.3 M78-8.7L78-8.7L78-8.7c0.1-0.1,0.1-0.1,0.1-0.1
			c0,0,0,0,0,0c0,0,0,0,0,0C78.1-8.7,78.1-8.7,78-8.7L78-8.7z M78-8.7C78.1-8.7,78.1-8.7,78-8.7c0.1,0,0.1-0.1,0.1-0.1
			c0,0,0,0,0-0.1c0,0,0,0-0.1,0L78.2-9h-0.1L78-8.9h0V-9h-0.1v0.3C77.9-8.7,78-8.7,78-8.7z M78-9.1c0,0,0.1,0,0.1,0
			c0,0,0.1,0,0.1,0.1c0,0,0,0.1,0.1,0.1c0,0,0,0.1,0,0.1c0,0,0,0.1,0,0.1c0,0,0,0.1-0.1,0.1c0,0-0.1,0-0.1,0.1c0,0-0.1,0-0.1,0
			c0,0-0.1,0-0.1,0c0,0-0.1,0-0.1-0.1c0,0,0-0.1-0.1-0.1c0,0,0-0.1,0-0.1c0,0,0-0.1,0-0.1c0,0,0-0.1,0.1-0.1s0.1,0,0.1-0.1
			C77.9-9.1,78-9.1,78-9.1 M78-8.5c0,0,0.1,0,0.1,0c0,0,0.1,0,0.1-0.1c0,0,0.1-0.1,0.1-0.1s0-0.1,0-0.1c0,0,0-0.1,0-0.1
			c0,0,0-0.1-0.1-0.1c0,0-0.1-0.1-0.1-0.1c0,0-0.1,0-0.1,0c0,0-0.1,0-0.1,0c0,0-0.1,0-0.1,0.1c0,0-0.1,0.1-0.1,0.1c0,0,0,0.1,0,0.1
			c0,0,0,0.1,0,0.1c0,0,0,0.1,0.1,0.1c0,0,0.1,0.1,0.1,0.1C77.9-8.5,78-8.5,78-8.5 M76.7-6.3v4.8h-1.2v-2.8
			c-0.4,0.5-0.9,0.8-1.7,0.8c-1.5,0-2.7-1.2-2.7-2.8c0-1.6,1.2-2.8,2.7-2.8c0.8,0,1.3,0.3,1.7,0.8V-9h1.2V-6.3z M47.6-4.6
			c0.7,0,1.2-0.5,1.3-1.3h-2.8C46.3-5.1,46.8-4.6,47.6-4.6 M47.6-3.5c-1.6,0-2.7-1.1-2.7-2.8c0-1.7,1.1-2.8,2.7-2.8
			c0.8,0,1.5,0.2,2.2,0.7l-0.6,0.9c-0.4-0.4-1-0.6-1.5-0.6c-0.7,0-1.4,0.3-1.6,1.3h4c0,0.1,0,0.3,0,0.4C50.1-4.7,49.1-3.5,47.6-3.5
			 M61.6-6.3c0,0.9,0.6,1.7,1.6,1.7c1,0,1.6-0.7,1.6-1.7S64.2-8,63.2-8C62.2-8,61.6-7.3,61.6-6.3 M65.9-6.3v2.7h-1.2v-0.6
			c-0.4,0.5-0.9,0.8-1.7,0.8c-1.5,0-2.7-1.2-2.7-2.8c0-1.6,1.2-2.8,2.7-2.8c0.8,0,1.3,0.3,1.7,0.8V-9h1.2V-6.3z M55.1-6.3
			c0-1.6,1.1-2.8,2.8-2.8c0.8,0,1.3,0.2,1.9,0.6l-0.6,0.9C58.8-7.9,58.4-8,57.9-8c-0.9,0-1.6,0.7-1.6,1.7c0,1,0.7,1.7,1.6,1.7
			c0.5,0,1-0.2,1.4-0.5l0.6,0.9c-0.6,0.5-1.1,0.6-1.9,0.6C56.2-3.5,55.1-4.7,55.1-6.3 M70-3.5c-0.7,0-1.1-0.3-1.4-0.8v0.6h-1.1V-9
			h1.2v3c0,0.9,0.4,1.4,1.1,1.4c0.2,0,0.5,0,0.7-0.1l0.4,1.1C70.6-3.6,70.2-3.5,70-3.5 M39-4.1c-0.6,0.4-1.3,0.6-2.2,0.6
			c-1.3,0-2.2-0.6-2.2-1.7c0-0.9,0.6-1.4,1.8-1.6L37-6.9c0.6-0.1,0.9-0.3,0.9-0.6c0-0.4-0.4-0.6-1.2-0.6c-0.8,0-1.4,0.3-1.8,0.6
			l-0.5-0.9c0.6-0.5,1.4-0.7,2.3-0.7c1.5,0,2.4,0.7,2.4,1.7c0,0.9-0.7,1.4-1.9,1.6l-0.5,0.1c-0.5,0.1-0.9,0.2-0.9,0.5
			c0,0.4,0.4,0.6,1,0.6c0.7,0,1.3-0.3,1.7-0.5C38.5-5,39-4.1,39-4.1z M53.9-3.5c-0.7,0-1.1-0.3-1.4-0.8v0.6h-1.1V-9h1.2v3
			c0,0.9,0.4,1.4,1.1,1.4c0.2,0,0.5,0,0.7-0.1l0.4,1.1C54.5-3.6,54.1-3.5,53.9-3.5 M44-3.7h-1.9V-2H41v-1.6h-1.1v-1.1H41v-2.4
			c0-1.2,0.5-2,1.8-2c0.5,0,1.1,0.2,1.4,0.4l-0.3,1c-0.3-0.2-0.7-0.3-1-0.3c-0.6,0-0.8,0.4-0.8,0.9v2.4H44C44-4.7,44-3.7,44-3.7z
			 M26.7-9v3.3c0,1.3-0.8,2.1-2.1,2.1c-0.7,0-1.4-0.2-1.9-0.9c-0.4,0.6-0.9,0.9-1.8,0.9c-0.6,0-1.1-0.2-1.6-0.8v0.7h-1.2V-9h1.2v3
			c0,0.9,0.5,1.4,1.3,1.4c0.8,0,1.2-0.5,1.2-1.4v-3h1.2v3c0,0.9,0.5,1.4,1.3,1.4c0.8,0,1.2-0.5,1.2-1.4v-3H26.7z M12.7-11.2v0.3
			h-0.1l-0.1-0.2l-0.1,0.2h-0.1v-0.3h0.1v0.2l0.1-0.2h0.1l0.1,0.2L12.7-11.2L12.7-11.2z M12.2-11.2v0.3h0.1v0.1H12V-11h0.1
			L12.2-11.2C12.1-11.2,12.2-11.2,12.2-11.2z"/>
	</g>
</g>
</svg>
