<?xml version="1.0" encoding="utf-8"?>
<!-- Generator: Adobe Illustrator 21.0.2, SVG Export Plug-In . SVG Version: 6.00 Build 0)  -->
<svg version="1.1"
	 id="svg8513" inkscape:version="0.91 r13725" xmlns:cc="http://creativecommons.org/ns#" xmlns:dc="http://purl.org/dc/elements/1.1/" xmlns:inkscape="http://www.inkscape.org/namespaces/inkscape" xmlns:rdf="http://www.w3.org/1999/02/22-rdf-syntax-ns#" xmlns:sodipodi="http://sodipodi.sourceforge.net/DTD/sodipodi-0.dtd" xmlns:svg="http://www.w3.org/2000/svg"
	 xmlns="http://www.w3.org/2000/svg" xmlns:xlink="http://www.w3.org/1999/xlink" x="0px" y="0px" viewBox="0 0 69.9 24.9"
	 style="enable-background:new 0 0 69.9 24.9;" xml:space="preserve">
<style type="text/css">
	.st0{fill:#CFCFCF;}
</style>
<sodipodi:namedview  bordercolor="#666666" borderopacity="1" gridtolerance="10" guidetolerance="10" id="namedview8515" inkscape:pageopacity="0" inkscape:pageshadow="2" inkscape:window-height="480" inkscape:window-width="640" objecttolerance="10" pagecolor="#ffffff">
	</sodipodi:namedview>
<inkscape:clipboard  max="-46.08772,-2275.9981" min="-115.98102,-2300.8502" style="color:#000000;clip-rule:nonzero;display:inline;overflow:visible;visibility:visible;opacity:1;isolation:auto;mix-blend-mode:normal;color-interpolation:sRGB;color-interpolation-filters:linearRGB;solid-color:#000000;solid-opacity:1;fill:#ffffff;fill-opacity:1;fill-rule:evenodd;stroke-width:1;stroke-linecap:butt;stroke-linejoin:miter;stroke-miterlimit:4;stroke-dasharray:none;stroke-dashoffset:0;stroke-opacity:1;filter-blend-mode:normal;filter-gaussianBlur-deviation:0;color-rendering:auto;image-rendering:auto;shape-rendering:auto;text-rendering:auto;enable-background:accumulate;stroke:none">
	</inkscape:clipboard>
<g id="g8185" transform="translate(115.98102,-3328.3603)">
	<path id="path17105" inkscape:connector-curvature="0" class="st0" d="M-48.8,3338h0.2c0.1,0,0.1,0,0.2,0c0,0,0.1-0.1,0.1-0.1
		c0,0,0-0.1-0.1-0.1c0,0-0.1,0-0.2,0h-0.1L-48.8,3338L-48.8,3338z M-48.8,3338.7H-49v-1.2h0.5c0.1,0,0.2,0,0.3,0.1
		c0.1,0.1,0.1,0.2,0.1,0.3c0,0.1-0.1,0.3-0.2,0.3l0.2,0.5h-0.3l-0.2-0.5h-0.2L-48.8,3338.7L-48.8,3338.7z M-48.6,3339.2
		c0.6,0,1-0.5,1-1.1c0-0.6-0.5-1-1-1s-1,0.5-1,1C-49.6,3338.7-49.1,3339.2-48.6,3339.2 M-49.9,3338.1c0-0.8,0.6-1.4,1.3-1.4
		c0.7,0,1.3,0.6,1.3,1.4c0,0.8-0.6,1.4-1.3,1.4C-49.3,3339.5-49.9,3338.9-49.9,3338.1"/>
	<path id="path17109" inkscape:connector-curvature="0" class="st0" d="M-68.7,3328.9l-0.4,2.3c-0.8-0.4-1.4-0.6-2-0.6
		c-1.6,0-2.8,1.7-2.8,4c0,1.6,0.8,2.6,2.1,2.6c0.5,0,1.1-0.2,1.9-0.6l-0.4,2.5c-0.8,0.2-1.3,0.3-1.9,0.3c-2.4,0-3.8-1.8-3.8-4.7
		c0-3.9,2-6.6,5-6.6c0.4,0,0.7,0,1,0.1l0.9,0.2C-69,3328.8-68.9,3328.8-68.7,3328.9"/>
	<path id="path17113" inkscape:connector-curvature="0" class="st0" d="M-76,3330.5c-0.1,0-0.1,0-0.2,0c-0.7,0-1.1,0.4-1.8,1.4
		l0.2-1.3h-2l-1.4,8.8h2.2c0.8-5.4,1-6.3,2.1-6.3c0.1,0,0.1,0,0.2,0C-76.6,3332-76.3,3331.3-76,3330.5L-76,3330.5L-76,3330.5z"/>
	<path id="path17117" inkscape:connector-curvature="0" class="st0" d="M-89.2,3339.3c-0.6,0.2-1.1,0.3-1.6,0.3
		c-1.1,0-1.7-0.7-1.7-1.9c0-0.2,0-0.5,0.1-0.8l0.1-0.9l0.1-0.7l1-6h2.2l-0.3,1.3h1.1l-0.3,2.1h-1.1l-0.6,3.7c0,0.2,0,0.3,0,0.4
		c0,0.4,0.2,0.7,0.8,0.7c0.3,0,0.4,0,0.6-0.1L-89.2,3339.3L-89.2,3339.3z"/>
	<path id="path17121" inkscape:connector-curvature="0" class="st0" d="M-97.9,3333.4c0,1.1,0.5,1.9,1.7,2.4c0.9,0.4,1,0.6,1,1
		c0,0.5-0.4,0.8-1.3,0.8c-0.7,0-1.3-0.1-2-0.4l-0.3,2l0.1,0l0.4,0.1c0.1,0,0.3,0.1,0.6,0.1c0.5,0,0.9,0.1,1.2,0.1
		c2.3,0,3.4-0.9,3.4-2.9c0-1.2-0.4-1.9-1.5-2.4c-0.9-0.4-1-0.5-1-0.9c0-0.5,0.4-0.7,1.1-0.7c0.4,0,1,0.1,1.6,0.1l0.3-2
		c-0.6-0.1-1.4-0.2-1.9-0.2C-97,3330.4-97.9,3331.8-97.9,3333.4"/>
	<path id="path17125" inkscape:connector-curvature="0" class="st0" d="M-54.4,3337.3c1,0,1.7-1.2,1.7-3c0-1.1-0.4-1.7-1.2-1.7
		c-1,0-1.7,1.2-1.7,3C-55.6,3336.7-55.2,3337.3-54.4,3337.3 M-51.2,3339.4h-2.1l0.1-0.9c-0.6,0.7-1.2,1-2,1c-1.6,0-2.7-1.5-2.7-3.6
		c0-2.9,1.6-5.4,3.6-5.4c0.9,0,1.5,0.4,2.1,1.2l0.5-3.1h2.2L-51.2,3339.4L-51.2,3339.4z"/>
	<path id="path17129" inkscape:connector-curvature="0" class="st0" d="M-83.5,3334c0-0.2,0-0.3,0-0.4c0-0.7-0.4-1.1-1-1.1
		c-0.7,0-1.2,0.6-1.4,1.6L-83.5,3334L-83.5,3334z M-82.2,3339.2c-0.8,0.2-1.5,0.4-2.3,0.4c-2.5,0-3.7-1.4-3.7-3.9
		c0-3,1.6-5.2,3.8-5.2c1.8,0,3,1.2,3,3.2c0,0.6-0.1,1.3-0.3,2.2h-4.4c0,0.1,0,0.2,0,0.3c0,1,0.7,1.5,1.9,1.5c0.8,0,1.5-0.2,2.3-0.6
		L-82.2,3339.2z"/>
	<path id="path17133" inkscape:connector-curvature="0" class="st0" d="M-106.7,3339.4h-2.2l1.3-8.3l-2.8,8.3h-1.5l-0.2-8.3
		l-1.3,8.3h-2.1l1.7-10.8h3.2l0.1,6.7l2.1-6.7h3.4L-106.7,3339.4z"/>
	<path id="path17137" inkscape:connector-curvature="0" class="st0" d="M-99.5,3339.4h-1.8l0-0.9c-0.6,0.7-1.3,1.1-2.3,1.1
		c-1.2,0-2-1-2-2.4c0-2.1,1.4-3.4,3.9-3.4c0.2,0,0.6,0,0.9,0.1c0.1-0.3,0.1-0.4,0.1-0.6c0-0.6-0.4-0.8-1.4-0.8
		c-0.6,0-1.3,0.1-1.8,0.3l-0.3,0.1l-0.2,0.1l0.3-2c1.1-0.3,1.8-0.5,2.6-0.5c1.9,0,2.9,0.9,2.9,2.6c0,0.4,0,0.8-0.2,1.7l-0.5,3.1
		l-0.1,0.6l-0.1,0.4l0,0.3L-99.5,3339.4L-99.5,3339.4z M-101.1,3335.5c-0.2,0-0.3,0-0.5,0c-1.2,0-1.9,0.5-1.9,1.3
		c0,0.5,0.3,0.9,0.8,0.9C-101.7,3337.7-101.1,3336.8-101.1,3335.5"/>
	<path id="path17141" inkscape:connector-curvature="0" class="st0" d="M-63.3,3339.4h-1.8l0-0.9c-0.6,0.7-1.3,1.1-2.3,1.1
		c-1.2,0-2-1-2-2.4c0-2.1,1.4-3.4,3.9-3.4c0.2,0,0.6,0,0.9,0.1c0.1-0.3,0.1-0.4,0.1-0.6c0-0.6-0.4-0.8-1.4-0.8
		c-0.6,0-1.3,0.1-1.8,0.3l-0.3,0.1l-0.2,0.1l0.3-2c1.1-0.3,1.8-0.5,2.6-0.5c1.9,0,2.9,0.9,2.9,2.6c0,0.4,0,0.8-0.2,1.7l-0.5,3.1
		l-0.1,0.6l-0.1,0.4l0,0.3L-63.3,3339.4z M-64.9,3335.5c-0.2,0-0.3,0-0.5,0c-1.3,0-1.9,0.5-1.9,1.3c0,0.5,0.3,0.9,0.8,0.9
		C-65.6,3337.7-65,3336.8-64.9,3335.5"/>
	<path id="path17145" inkscape:connector-curvature="0" class="st0" d="M-57.2,3330.5c-0.1,0-0.1,0-0.2,0c-0.7,0-1.1,0.4-1.8,1.4
		l0.2-1.3h-2l-1.3,8.8h2.2c0.8-5.4,1-6.3,2.1-6.3c0.1,0,0.1,0,0.2,0C-57.7,3332-57.5,3331.3-57.2,3330.5L-57.2,3330.5L-57.2,3330.5z
		"/>
	<path id="path17149" inkscape:connector-curvature="0" class="st0" d="M-64.3,3348c0-2.2-1.1-3.9-3.2-3.9c-2.4,0-3.9,2.1-3.9,5.2
		c0,2.2,0.9,4,3.1,4C-65.9,3353.2-64.3,3351.6-64.3,3348 M-66.4,3347.9c0,2-0.6,3.2-1.6,3.2c-0.7,0-1.1-0.8-1.1-2c0-1.4,0.6-3,1.6-3
		C-66.7,3346.1-66.4,3347-66.4,3347.9"/>
	<path id="path17153" inkscape:connector-curvature="0" class="st0" d="M-70.6,3342.5l-0.3,2.3c-0.7-0.4-1.3-0.6-1.8-0.6
		c-1.5,0-2.6,1.7-2.6,4.1c0,1.6,0.7,2.6,1.9,2.6c0.5,0,1.1-0.2,1.8-0.6l-0.4,2.5c-0.8,0.2-1.3,0.3-1.8,0.3c-2.2,0-3.6-1.8-3.6-4.7
		c0-3.9,1.9-6.6,4.6-6.6c0.4,0,0.7,0,0.9,0.1l0.8,0.2C-70.8,3342.4-70.8,3342.4-70.6,3342.5"/>
	<path id="path17157" inkscape:connector-curvature="0" class="st0" d="M-84.2,3344.1c-0.1,0-0.1,0-0.2,0c-0.7,0-1.1,0.4-1.7,1.4
		l0.2-1.3h-1.9l-1.3,8.8h2.1c0.7-5.4,0.9-6.3,1.9-6.3c0.1,0,0.1,0,0.2,0C-84.7,3345.6-84.5,3344.8-84.2,3344.1
		C-84.1,3344.1-84.2,3344.1-84.2,3344.1z"/>
	<path id="path17161" inkscape:connector-curvature="0" class="st0" d="M-60.4,3350.8c1,0,1.6-1.2,1.6-3c0-1.1-0.4-1.7-1.1-1.7
		c-0.9,0-1.6,1.2-1.6,3C-61.5,3350.2-61.1,3350.8-60.4,3350.8 M-57.4,3352.8h-1.9l0.1-0.9c-0.6,0.7-1.2,1-1.9,1
		c-1.5,0-2.5-1.5-2.5-3.6c0-2.9,1.5-5.4,3.3-5.4c0.8,0,1.4,0.4,2,1.2l0.5-3.1h2C-55.8,3342-57.4,3352.8-57.4,3352.8z"/>
	<path id="path17165" inkscape:connector-curvature="0" class="st0" d="M-104.6,3347.6c0-0.2,0-0.3,0-0.4c0-0.7-0.4-1.1-1-1.1
		c-0.7,0-1.1,0.6-1.3,1.6L-104.6,3347.6z M-103.5,3352.8c-0.7,0.2-1.4,0.4-2.1,0.4c-2.3,0-3.5-1.4-3.5-3.9c0-3,1.5-5.2,3.6-5.2
		c1.7,0,2.8,1.2,2.8,3.2c0,0.6-0.1,1.3-0.2,2.2h-4.1c0,0.1,0,0.2,0,0.3c0,1,0.6,1.5,1.8,1.5c0.7,0,1.4-0.2,2.1-0.6
		C-103.1,3350.6-103.5,3352.8-103.5,3352.8z"/>
	<path id="path17169" inkscape:connector-curvature="0" class="st0" d="M-80.2,3347.6c0-0.2,0-0.3,0-0.4c0-0.7-0.4-1.1-1-1.1
		c-0.7,0-1.1,0.6-1.3,1.6C-82.5,3347.6-80.2,3347.6-80.2,3347.6z M-79,3352.8c-0.7,0.2-1.4,0.4-2.1,0.4c-2.3,0-3.5-1.4-3.5-3.9
		c0-3,1.5-5.2,3.6-5.2c1.7,0,2.8,1.2,2.8,3.2c0,0.6-0.1,1.3-0.3,2.2h-4.1c0,0.1,0,0.2,0,0.3c0,1,0.6,1.5,1.8,1.5
		c0.7,0,1.4-0.2,2.1-0.6C-78.7,3350.6-79,3352.8-79,3352.8z"/>
	<path id="path17173" inkscape:connector-curvature="0" class="st0" d="M-51.5,3347.6c0-0.2,0-0.3,0-0.4c0-0.7-0.4-1.1-1-1.1
		c-0.7,0-1.1,0.6-1.3,1.6C-53.8,3347.6-51.5,3347.6-51.5,3347.6z M-50.3,3352.8c-0.7,0.2-1.4,0.4-2.1,0.4c-2.3,0-3.5-1.4-3.5-3.9
		c0-3,1.5-5.2,3.6-5.2c1.7,0,2.8,1.2,2.8,3.2c0,0.6-0.1,1.3-0.3,2.2h-4.1c0,0.1,0,0.2,0,0.3c0,1,0.6,1.5,1.8,1.5
		c0.7,0,1.4-0.2,2.1-0.6L-50.3,3352.8z"/>
	<path id="path17177" inkscape:connector-curvature="0" class="st0" d="M-109.6,3344.5c-0.4-0.3-0.9-0.5-1.7-0.5
		c-0.8,0-1.5,0.2-1.5,1.1c0,1.6,3,1,3,4.3c0,3-2,3.8-3.8,3.8c-0.8,0-1.7-0.3-2.4-0.6l0.5-2.2c0.4,0.4,1.2,0.6,1.9,0.6
		c0.6,0,1.7-0.2,1.7-1.3c0-1.8-3-1.1-3-4.2c0-2.8,1.8-3.7,3.5-3.7c1,0,1.9,0.1,2.4,0.5L-109.6,3344.5L-109.6,3344.5z"/>
	<path id="path17181" inkscape:connector-curvature="0" class="st0" d="M-97.5,3352.8c-0.4,0.2-1,0.3-1.8,0.3c-1.8,0-2.9-1.8-2.9-4
		c0-2.9,1.6-5.1,4-5.1c0.5,0,1.3,0.2,1.9,0.6l-0.5,2.1c-0.4-0.3-0.9-0.5-1.4-0.5c-1.1,0-1.9,1-1.9,2.8c0,1,0.6,1.9,1.5,1.9
		c0.5,0,0.9-0.1,1.4-0.4L-97.5,3352.8L-97.5,3352.8z"/>
	<path id="path17185" inkscape:connector-curvature="0" class="st0" d="M-89.8,3350.6c-0.1,0.8-0.2,1.5-0.3,2.3h-2l0.2-1.4h0
		c-0.6,1-1.3,1.6-2.4,1.6c-1.2,0-1.9-1.3-1.9-3c0-0.6,0-0.9,0.2-1.8l0.6-4.1h2.2l-0.6,4.1c-0.1,0.4-0.1,0.9-0.1,1.3
		c0,0.5,0.2,1,0.8,1c0.9,0,1.4-1.1,1.6-2.4l0.6-4h2.1C-88.8,3344.2-89.8,3350.6-89.8,3350.6z"/>
	<path id="path17189" inkscape:connector-curvature="0" class="st0" d="M-48.3,3352.8h-0.3v-1.5h-0.5v-0.3h1.3v0.3h-0.5
		C-48.3,3351.3-48.3,3352.8-48.3,3352.8z"/>
	<path id="path17193" inkscape:connector-curvature="0" class="st0" d="M-46.1,3352.8h-0.3v-1.5h0l-0.3,1.5H-47l-0.3-1.5h0v1.5h-0.3
		v-1.8h0.5l0.3,1.4h0l0.3-1.4h0.5L-46.1,3352.8L-46.1,3352.8z"/>
</g>
</svg>
