<?xml version="1.0" encoding="utf-8"?>
<!-- Generator: Adobe Illustrator 21.0.2, SVG Export Plug-In . SVG Version: 6.00 Build 0)  -->
<svg version="1.1"
	 id="svg5814" inkscape:version="0.91 r13725" xmlns:cc="http://creativecommons.org/ns#" xmlns:dc="http://purl.org/dc/elements/1.1/" xmlns:inkscape="http://www.inkscape.org/namespaces/inkscape" xmlns:rdf="http://www.w3.org/1999/02/22-rdf-syntax-ns#" xmlns:sodipodi="http://sodipodi.sourceforge.net/DTD/sodipodi-0.dtd" xmlns:svg="http://www.w3.org/2000/svg"
	 xmlns="http://www.w3.org/2000/svg" xmlns:xlink="http://www.w3.org/1999/xlink" x="0px" y="0px" viewBox="0 0 64.2 24.6"
	 style="enable-background:new 0 0 64.2 24.6;" xml:space="preserve">
<style type="text/css">
	.st0{fill:#CFCFCF;}
</style>
<sodipodi:namedview  bordercolor="#666666" borderopacity="1" gridtolerance="10" guidetolerance="10" id="namedview5816" inkscape:pageopacity="0" inkscape:pageshadow="2" inkscape:window-height="480" inkscape:window-width="640" objecttolerance="10" pagecolor="#ffffff">
	</sodipodi:namedview>
<inkscape:clipboard  max="747.58386,-136.82948" min="683.42981,-161.42671" style="color:#000000;clip-rule:nonzero;display:inline;overflow:visible;visibility:visible;opacity:1;isolation:auto;mix-blend-mode:normal;color-interpolation:sRGB;color-interpolation-filters:linearRGB;solid-color:#000000;solid-opacity:1;fill:#ffffff;fill-opacity:1;fill-rule:nonzero;stroke-width:1;stroke-linecap:butt;stroke-linejoin:miter;stroke-miterlimit:4;stroke-dasharray:none;stroke-dashoffset:0;stroke-opacity:1;filter-blend-mode:normal;filter-gaussianBlur-deviation:0;color-rendering:auto;image-rendering:auto;shape-rendering:auto;text-rendering:auto;enable-background:accumulate;stroke:none">
	</inkscape:clipboard>
<g id="g5796" transform="translate(-683.42981,-1189.1917)">
	<path id="path4616" inkscape:connector-curvature="0" class="st0" d="M728.1,1194.5v4h0.6c0.5,0,0.8-0.1,1-0.2
		c0.2-0.1,0.4-0.3,0.5-0.6c0.1-0.3,0.2-0.7,0.2-1.3c0-0.8-0.1-1.3-0.4-1.6c-0.3-0.3-0.7-0.4-1.3-0.4L728.1,1194.5L728.1,1194.5z
		 M725.8,1192.8h3.4c0.7,0,1.2,0.1,1.6,0.3c0.4,0.2,0.8,0.4,1,0.8c0.3,0.3,0.5,0.7,0.6,1.2c0.1,0.5,0.2,0.9,0.2,1.4
		c0,0.8-0.1,1.4-0.3,1.8c-0.2,0.4-0.4,0.8-0.7,1.1c-0.3,0.3-0.7,0.5-1,0.6c-0.5,0.1-1,0.2-1.4,0.2h-3.4L725.8,1192.8L725.8,1192.8
		L725.8,1192.8z"/>
	<path id="path4620" inkscape:connector-curvature="0" class="st0" d="M733.4,1197.8l2.2-0.1c0,0.3,0.1,0.6,0.3,0.8
		c0.2,0.3,0.6,0.5,1,0.5c0.3,0,0.6-0.1,0.8-0.2c0.2-0.2,0.3-0.3,0.3-0.5c0-0.2-0.1-0.4-0.3-0.5c-0.2-0.2-0.6-0.3-1.2-0.4
		c-1-0.2-1.7-0.5-2.1-0.9c-0.4-0.4-0.7-0.8-0.7-1.4c0-0.4,0.1-0.7,0.3-1.1c0.2-0.3,0.5-0.6,1-0.8c0.4-0.2,1-0.3,1.8-0.3
		c0.9,0,1.7,0.2,2.2,0.5c0.5,0.3,0.8,0.9,0.9,1.7l-2.2,0.1c-0.1-0.3-0.2-0.6-0.4-0.7c-0.2-0.2-0.4-0.2-0.8-0.2
		c-0.3,0-0.5,0.1-0.6,0.2c-0.1,0.1-0.2,0.2-0.2,0.4c0,0.1,0.1,0.2,0.2,0.3c0.1,0.1,0.4,0.2,0.8,0.3c1,0.2,1.7,0.4,2.2,0.7
		c0.4,0.2,0.7,0.5,0.9,0.8c0.2,0.3,0.3,0.7,0.3,1.1c0,0.5-0.1,0.9-0.4,1.3c-0.3,0.4-0.6,0.7-1.1,0.9c-0.5,0.2-1.1,0.3-1.8,0.3
		c-1.3,0-2.1-0.2-2.6-0.7C733.7,1199.1,733.5,1198.5,733.4,1197.8"/>
	<path id="path4624" inkscape:connector-curvature="0" class="st0" d="M740.9,1197.8l2.2-0.1c0,0.3,0.1,0.6,0.3,0.8
		c0.2,0.3,0.6,0.5,1,0.5c0.3,0,0.6-0.1,0.8-0.2c0.2-0.2,0.3-0.3,0.3-0.5c0-0.2-0.1-0.4-0.3-0.5c-0.2-0.2-0.6-0.3-1.2-0.4
		c-1-0.2-1.7-0.5-2.1-0.9c-0.4-0.4-0.7-0.8-0.7-1.4c0-0.4,0.1-0.7,0.3-1.1c0.2-0.3,0.5-0.6,1-0.8c0.4-0.2,1-0.3,1.8-0.3
		c0.9,0,1.7,0.2,2.2,0.5c0.5,0.3,0.8,0.9,0.9,1.7l-2.2,0.1c-0.1-0.3-0.2-0.6-0.4-0.7c-0.2-0.2-0.4-0.2-0.8-0.2
		c-0.3,0-0.5,0.1-0.6,0.2c-0.1,0.1-0.2,0.2-0.2,0.4c0,0.1,0.1,0.2,0.2,0.3c0.1,0.1,0.4,0.2,0.8,0.3c1,0.2,1.7,0.4,2.2,0.7
		c0.4,0.2,0.7,0.5,0.9,0.8c0.2,0.3,0.3,0.7,0.3,1.1c0,0.5-0.1,0.9-0.4,1.3c-0.3,0.4-0.6,0.7-1.1,0.9c-0.5,0.2-1.1,0.3-1.8,0.3
		c-1.3,0-2.1-0.2-2.6-0.7C741.2,1199.1,740.9,1198.5,740.9,1197.8"/>
	<path id="path4628" inkscape:connector-curvature="0" class="st0" d="M727.2,1203.1l0.6,0.2c0,0.2-0.1,0.3-0.2,0.4
		c-0.1,0.1-0.2,0.2-0.3,0.3c-0.1,0.1-0.3,0.1-0.5,0.1c-0.2,0-0.4,0-0.6-0.1c-0.2-0.1-0.3-0.2-0.4-0.4c-0.1-0.2-0.2-0.4-0.2-0.7
		c0-0.4,0.1-0.7,0.3-0.9c0.2-0.2,0.5-0.3,0.8-0.3c0.3,0,0.5,0.1,0.7,0.2c0.2,0.1,0.3,0.3,0.4,0.5l-0.6,0.1c0-0.1,0-0.1-0.1-0.2
		c0-0.1-0.1-0.1-0.1-0.1c-0.1,0-0.1,0-0.2,0c-0.2,0-0.3,0.1-0.4,0.2c-0.1,0.1-0.1,0.2-0.1,0.4c0,0.2,0,0.4,0.1,0.5
		c0.1,0.1,0.2,0.1,0.3,0.1s0.2,0,0.3-0.1C727.1,1203.4,727.2,1203.3,727.2,1203.1"/>
	<path id="path4632" inkscape:connector-curvature="0" class="st0" d="M728.9,1202.9c0,0.2,0,0.4,0.1,0.5c0.1,0.1,0.2,0.2,0.3,0.2
		s0.3,0,0.3-0.2c0.1-0.1,0.1-0.3,0.1-0.5c0-0.2,0-0.4-0.1-0.5c-0.1-0.1-0.2-0.2-0.3-0.2c-0.1,0-0.3,0-0.3,0.2
		C728.9,1202.5,728.9,1202.7,728.9,1202.9 M728.2,1202.9c0-0.4,0.1-0.7,0.3-0.9c0.2-0.2,0.5-0.3,0.8-0.3c0.4,0,0.7,0.1,0.9,0.3
		c0.2,0.2,0.3,0.5,0.3,0.8c0,0.3,0,0.5-0.1,0.7c-0.1,0.2-0.2,0.3-0.4,0.4c-0.2,0.1-0.4,0.1-0.6,0.1s-0.5,0-0.6-0.1
		c-0.2-0.1-0.3-0.2-0.4-0.4C728.2,1203.4,728.2,1203.2,728.2,1202.9"/>
	<path id="path4636" inkscape:connector-curvature="0" class="st0" d="M731,1201.8h0.9l0.3,1.4l0.3-1.4h0.9v2.2H733v-1.7l-0.4,1.7
		H732l-0.4-1.7v1.7H731L731,1201.8z"/>
	<path id="path4640" inkscape:connector-curvature="0" class="st0" d="M734.8,1202.8h0.2c0.1,0,0.2,0,0.3-0.1c0.1,0,0.1-0.1,0.1-0.2
		c0-0.1,0-0.1-0.1-0.2c0,0-0.1-0.1-0.3-0.1h-0.2V1202.8L734.8,1202.8z M734.1,1201.8h1.2c0.3,0,0.4,0.1,0.6,0.2
		c0.1,0.1,0.2,0.3,0.2,0.5c0,0.2-0.1,0.4-0.2,0.5c-0.1,0.1-0.3,0.2-0.6,0.2h-0.4v0.8h-0.7L734.1,1201.8L734.1,1201.8z"/>
	<path id="path4644" inkscape:connector-curvature="0" class="st0" d="M736.5,1201.8h0.7v1.7h1.1v0.6h-1.8V1201.8z"/>
	<path id="path4646" inkscape:connector-curvature="0" class="st0" d="M738.8,1201.8h0.7v2.2h-0.7V1201.8z"/>
	<path id="path4650" inkscape:connector-curvature="0" class="st0" d="M741.3,1203.2l-0.2-0.8l-0.2,0.8H741.3z M741.5,1203.7h-0.8
		l-0.1,0.4h-0.7l0.8-2.2h0.8l0.8,2.2h-0.7L741.5,1203.7L741.5,1203.7z"/>
	<path id="path4654" inkscape:connector-curvature="0" class="st0" d="M742.7,1201.8h0.7l0.8,1.2v-1.2h0.7v2.2h-0.7l-0.8-1.2v1.2
		h-0.7L742.7,1201.8z"/>
	<path id="path4658" inkscape:connector-curvature="0" class="st0" d="M745.2,1201.8h2.1v0.6h-0.7v1.7h-0.7v-1.7h-0.7V1201.8z"/>
	<path id="path4662" inkscape:connector-curvature="0" class="st0" d="M724.3,1195.7c-0.1,0-0.2,0-0.3,0c-0.8,0-2,0.2-2.9,0.7
		c-1.1,0.5-8.6,11.4-8.6,11.4s-2.4-2.3-3.1-2.5c0,0-0.1,0-0.2,0c-0.5,0-1.6,0.7-1.4,1.7c0,0,3,3.9,3.3,4.1c0.2,0.1,0.8,0.3,1.4,0.3
		c0.6,0,1.3-0.2,1.7-0.7C719.4,1199.7,725.1,1195.8,724.3,1195.7"/>
	<path id="path4666" inkscape:connector-curvature="0" class="st0" d="M712.8,1191.5c1.4,0,2.3,0.9,2.3,2.2c0,1.3-0.9,2.2-2.3,2.2
		c-1.4,0-2.3-0.9-2.3-2.2C710.5,1192.3,711.5,1191.5,712.8,1191.5 M707.4,1207.1l0-0.1c0-0.1,0-0.1,0-0.2c-1.6,0.2-3.2,0-4.8-0.6
		c-1.9-0.8-3-2.2-3-4.3c-0.1-2.1,0.9-3.5,2.7-4.4c1-0.5,2-0.8,3.1-0.8c1.2-0.1,2.3,0,3.4,0.3c0.2,0.1,0.3,0.2,0.3,0.4
		c0,0.7,0,1.3,0,2c0,0.1,0,0.2,0,0.3c-0.2-0.1-0.3-0.1-0.4-0.2c-1-0.5-2-0.7-3.1-0.5c-1.2,0.2-2,1-2.1,2.3c-0.1,1.2,0.5,2.2,1.6,2.7
		c0.9,0.3,1.8,0.3,2.7,0.2c0.5-0.1,1-0.3,1.5-0.4c0,0.1,0,0.1,0,0.2c0,0.2,0,0.5,0,0.7c0.1,0,0.1,0,0.2,0c0.3,0.1,0.8,0.5,1.3,0.9
		c0-2.9,0-5.7,0-8.6c0-0.3,0.1-0.3,0.3-0.3c1,0,2.1,0,3.1,0c0.4,0,0.4,0,0.4,0.4v6.6c0.4-0.6,0.8-1.2,1.3-1.8
		c0.9-1.2,1.6-2.2,2.1-2.9c-1.4-3.2-2.9-6.4-4.3-9.5c-0.1-0.2-0.1-0.3-0.4-0.3c-4.1,0.2-8.2,0.5-12.3,0.7
		c-5.3,0.3-10.6,0.6-15.9,0.9c-0.6,0-1.2,0.1-1.9,0.1c1.9,5.2,3.8,10.3,5.7,15.5c0,0,0,0,0.1,0v-0.3v-8.9c0-0.2,0-0.4,0.3-0.4
		c1.6,0,3.3,0,4.9,0c1,0,1.9,0.2,2.8,0.6c1.6,0.7,2.2,2.4,1.6,3.9c-0.4,1-1.2,1.6-2.2,1.9c-1,0.4-2.1,0.5-3.2,0.4
		c-0.3,0-0.4,0.1-0.4,0.4c0,0.7,0,1.5,0,2.2c0,0.3-0.1,0.4-0.3,0.4c-1,0-2,0-3,0c-0.1,0-0.2,0-0.4,0c0.9,2.3,1.7,4.6,2.6,6.9
		c0.1,0.2,0.2,0.2,0.4,0.1c5.5-1.7,11-3.5,16.5-5.2C708.3,1208.1,707.9,1207.7,707.4,1207.1L707.4,1207.1L707.4,1207.1z"/>
	<path id="path4670" inkscape:connector-curvature="0" class="st0" d="M720.7,1204.7c-0.1-0.2-0.1-0.3-0.2-0.4
		c-0.3-0.7-0.6-1.4-0.9-2.1c-0.7,1-1.5,2.2-2.3,3.6C718.5,1205.4,719.6,1205.1,720.7,1204.7"/>
	<path id="path4674" inkscape:connector-curvature="0" class="st0" d="M693.2,1201.5c0.1,0,0.2,0,0.2,0c0,0,0,0,0,0
		c0.4-0.1,0.7-0.1,1.1-0.3c0.5-0.2,0.7-0.6,0.7-1.2c0-0.5-0.3-0.9-0.8-1c-0.4-0.1-0.9-0.1-1.3-0.2c-0.2,0-0.2,0.1-0.2,0.3
		c0,0.7,0,1.4,0,2.1C692.9,1201.5,693,1201.5,693.2,1201.5"/>
</g>
</svg>
