<?xml version="1.0" encoding="utf-8"?>
<!-- Generator: Adobe Illustrator 21.0.2, SVG Export Plug-In . SVG Version: 6.00 Build 0)  -->
<svg version="1.1"
	 id="svg8472" inkscape:version="0.91 r13725" xmlns:cc="http://creativecommons.org/ns#" xmlns:dc="http://purl.org/dc/elements/1.1/" xmlns:inkscape="http://www.inkscape.org/namespaces/inkscape" xmlns:rdf="http://www.w3.org/1999/02/22-rdf-syntax-ns#" xmlns:sodipodi="http://sodipodi.sourceforge.net/DTD/sodipodi-0.dtd" xmlns:svg="http://www.w3.org/2000/svg"
	 xmlns="http://www.w3.org/2000/svg" xmlns:xlink="http://www.w3.org/1999/xlink" x="0px" y="0px" viewBox="0 0 64.3 36.4"
	 style="enable-background:new 0 0 64.3 36.4;" xml:space="preserve">
<style type="text/css">
	.st0{fill:#CFCFCF;}
</style>
<sodipodi:namedview  bordercolor="#666666" borderopacity="1" gridtolerance="10" guidetolerance="10" id="namedview8474" inkscape:pageopacity="0" inkscape:pageshadow="2" inkscape:window-height="480" inkscape:window-width="640" objecttolerance="10" pagecolor="#ffffff">
	</sodipodi:namedview>
<inkscape:clipboard  max="-145.68148,-2266.9121" min="-209.97939,-2303.3265" style="color:#000000;clip-rule:nonzero;display:inline;overflow:visible;visibility:visible;opacity:1;isolation:auto;mix-blend-mode:normal;color-interpolation:sRGB;color-interpolation-filters:linearRGB;solid-color:#000000;solid-opacity:1;fill:#000000;fill-opacity:1;fill-rule:nonzero;stroke-width:1;stroke-linecap:butt;stroke-linejoin:miter;stroke-miterlimit:4;stroke-dasharray:none;stroke-dashoffset:0;stroke-opacity:1;filter-blend-mode:normal;filter-gaussianBlur-deviation:0;color-rendering:auto;image-rendering:auto;shape-rendering:auto;text-rendering:auto;enable-background:accumulate">
	</inkscape:clipboard>
<g id="g8151" transform="translate(209.97939,-3319.2743)">
	<g id="g17427" transform="matrix(1.25,0,0,-1.25,-154.92939,3343.498)">
		<path id="path17429" inkscape:connector-curvature="0" class="st0" d="M0.1,0C0-0.6-0.1-1.1-0.2-1.7c-0.5,0.2-1.1,0.4-1.9,0.4
			c-0.5,0-1-0.2-1-0.6c0-0.5,0.8-0.8,1.2-1c0.8-0.4,1.6-0.9,1.7-1.9c0-0.8-0.3-1.5-0.7-1.9c-1.1-1-3.5-1.1-5.2-0.5
			C-6-6.6-5.9-6-5.9-5.4C-5.2-5.7-4.3-6.1-3.4-6c0.4,0.1,1,0.3,1,0.8c0,0.6-1,0.9-1.6,1.2c-0.6,0.3-1.3,0.9-1.3,1.7
			c0,0.6,0.2,1.1,0.5,1.5C-4,0.2-1.7,0.6,0.1,0"/>
	</g>
	<g id="g17431" transform="matrix(1.25,0,0,-1.25,-179.60339,3330.0154)">
		<path id="path17433" inkscape:connector-curvature="0" class="st0" d="M0.1,0h2.2L0.9-8.6h-2.2L0.1,0z"/>
	</g>
	<g id="g17435" transform="matrix(1.25,0,0,-1.25,-186.78552,3332.1565)">
		<path id="path17437" inkscape:connector-curvature="0" class="st0" d="M0.1,0l-0.3-2.2h0.6c0.6,0,1.2,0.5,1.3,1.1
			C1.8-0.5,1.3,0,0.7,0H0.1z M-1.9,1.7h3.4C3.7,1.7,4.2,0.5,4-1C3.8-2.3,2.9-3.1,1.8-3.4L4-6.9H1.1l-1.6,3.4L-1-6.9h-2.2
			C-3.3-6.9-1.9,1.7-1.9,1.7z"/>
	</g>
	<g id="g17439" transform="matrix(1.25,0,0,-1.25,-166.92702,3330.0154)">
		<path id="path17441" inkscape:connector-curvature="0" class="st0" d="M0.1,0h2.2L0.9-8.6h-2.2L0.1,0z"/>
	</g>
	<g id="g17443" transform="matrix(1.25,0,0,-1.25,-162.04239,3330.0154)">
		<path id="path17445" inkscape:connector-curvature="0" class="st0" d="M0.1,0H5L4.6-1.9H2L1.8-3.3h2.5L4-5.2H1.5L1.2-6.7h2.7
			L3.6-8.6h-4.9L0.1,0z"/>
	</g>
	<g id="g17447" transform="matrix(1.25,0,0,-1.25,-196.96614,3330.0154)">
		<path id="path17449" inkscape:connector-curvature="0" class="st0" d="M0.1,0H5L4.6-1.9H2L1.7-3.3h2.5L4-5.2H1.5L1.2-6.7h2.7
			L3.6-8.6h-4.9L0.1,0z"/>
	</g>
	<g id="g17451" transform="matrix(1.25,0,0,-1.25,-174.72552,3330.0154)">
		<path id="path17453" inkscape:connector-curvature="0" class="st0" d="M0.1,0H5L4.7-1.9H2L1.7-3.3h2.5L3.9-5.2H1.4L0.9-8.6h-2.2
			L0.1,0z"/>
	</g>
	<g id="g17455" transform="matrix(1.25,0,0,-1.25,-151.91002,3332.3566)">
		<path class="st0" d="M1,1.9h-2.9l-1.4-8.6h2.9c2.8,0,4.9,1.9,5.3,4.3C5.3-0.7,4.5,1.9,1,1.9z M2.7-2.4C2.5-3.9,1.3-4.9-0.1-4.9
			h-0.6L0.1,0h0.5C2.2,0,2.9-1.2,2.7-2.4z"/>
	</g>
	<g id="g17459" transform="matrix(1.25,0,0,-1.25,-209.97939,3328.5481)">
		<path id="path17461" inkscape:connector-curvature="0" class="st0" d="M0.1,0h4.1l0.5-6.3C7.4-1.6,10.1,3,12.9,7.4h1.3
			C11.3,1.7,8.4-4,5.6-9.8h-3L1.8-2.9C1.7-1.2,1.3-0.4,0.1-0.3V0z"/>
	</g>
	<g id="g17463" transform="matrix(1.25,0,0,-1.25,-208.03552,3324.0974)">
		<path id="path17465" inkscape:connector-curvature="0" class="st0" d="M0.1,0l3.5-1.5l0.3-3.9h0.3L7.3,0v0.3H0.1
			C0.1,0.3,0.1,0,0.1,0z"/>
	</g>
	<path class="st0" d="M-186.9,3346.8c-0.7,0-1.3,0.3-1.8,0.8l0.6-4.2h-1.8l-1.3,9.5h1.8l0.1-0.7c0.3,0.5,0.9,0.9,1.6,0.9
		c1.4,0,2.8-1.4,3.1-3.1C-184.5,3348.2-185.5,3346.8-186.9,3346.8z M-186.7,3349.9c-0.1,0.8-0.7,1.4-1.4,1.4s-1.1-0.6-1-1.4
		c0.1-0.7,0.7-1.4,1.4-1.4S-186.6,3349.1-186.7,3349.9z"/>
	<g id="g17471" transform="matrix(1.25,0,0,-1.25,-184.71702,3346.9075)">
		<path id="path17473" inkscape:connector-curvature="0" class="st0" d="M0.1,0h1.7l0.8-2.4L4.1,0h1.7L1.3-7h-1.7l1.8,3L0.1,0z"/>
	</g>
	<g id="g17475" transform="matrix(1.25,0,0,-1.25,-166.92764,3352.7827)">
		<path id="path17477" inkscape:connector-curvature="0" class="st0" d="M0.1,0l1.3,7.6h2.1L2.1,0H0.1z"/>
	</g>
	<g id="g17479" transform="matrix(1.25,0,0,-1.25,-169.08714,3343.2966)">
		<path id="path17481" inkscape:connector-curvature="0" class="st0" d="M0.1,0C-0.7-1.7-1.3-3.5-2-5.1l-0.2,1l0,0v-0.2
			c-0.2,0.5-0.4,1-0.8,1.5l0,0c0,0.1-0.1,0.2-0.2,0.2l-0.1,0.1C-3.8-1.9-4.4-1.4-5-1l1.8-6.5H-1c1,2.6,2.2,5,3.2,7.6L0.1,0L0.1,0z"
			/>
	</g>
	<g id="g17483" transform="matrix(1.25,0,0,-1.25,-173.96314,3343.2979)">
		<path id="path17485" inkscape:connector-curvature="0" class="st0" d="M0.1,0h-3.4v-0.2c1.9-0.4,4.4-2,5-4.1L1-0.8
			C0.9-0.2,0.5,0,0.1,0"/>
	</g>
	<g id="g17487" transform="matrix(1.25,0,0,-1.25,-150.14052,3345.9186)">
		<path id="path17489" inkscape:connector-curvature="0" class="st0" d="M0.1,0L-1-2.8h1.7L0.1,0z M3.2-5.5H1.3
			C1.2-5.2,1.1-4.7,1-4.3h-2.6L-2-5.5h-2.2L-1.4,1C-1.3,1.3-1,1.6-1,1.8c0.2,0.3,0.7,0.3,1,0.3h1.6C1.5,2.1,3.2-5.5,3.2-5.5z"/>
	</g>
</g>
</svg>
