<?xml version="1.0" encoding="utf-8"?>
<!-- Generator: Adobe Illustrator 21.0.2, SVG Export Plug-In . SVG Version: 6.00 Build 0)  -->
<svg version="1.1" id="Шар_1" xmlns="http://www.w3.org/2000/svg" xmlns:xlink="http://www.w3.org/1999/xlink" x="0px" y="0px"
	 viewBox="0 0 355 82" style="enable-background:new 0 0 355 82;" xml:space="preserve">
<style type="text/css">
	.st0{fill:#818AF7;}
	.st1{fill:#546BD7;}
	.st2{fill:#8D8BF4;}
	.st3{fill:#6AFFAA;}
	.st4{fill:#FFFFFF;}
</style>
<g id="VERT_MARK_x2B_TEXT">
	<g id="MARK_GRAD">
	</g>
	<g id="MARK_FLAT">
		<path class="st0" d="M69.6,68.8c-0.1,0-0.1,0-0.2,0.1c0,0-0.1,0-0.1,0c-0.1,0-0.2,0-0.3,0.1h0c-0.1,0-0.3,0-0.4,0
			c-0.1,0-0.2,0-0.3,0c-0.1,0-0.1,0-0.2,0c0,0-0.1,0-0.1,0c-0.1,0-0.2,0-0.3-0.1h0c-0.2-0.1-0.3-0.1-0.5-0.2
			c-7.6-4-22.7-7.9-37.7-9.6c0,5.1,0,15.1,0,17.7c0,0,0,0.1,0,0.1c0,0.1,0,0.1,0,0.2c0,0.1,0,0.1,0,0.2c0,0,0,0.1,0,0.1
			c0.3,1.6,1.8,2.6,3.4,2.3c0.1,0,0.1,0,0.2,0s0.1,0,0.2,0c0,0,0.1,0,0.1,0c0.2-0.1,0.4-0.1,0.6-0.3c13.2-7.3,24-9.9,34.2-10.1
			c0.6,0,1.2-0.2,1.7-0.6C69.9,68.6,69.7,68.7,69.6,68.8z"/>
		<path class="st1" d="M68,69.1c-0.1,0-0.1,0-0.2,0c0,0-0.1,0-0.1,0c-0.1,0-0.2,0-0.3-0.1h0c-0.2-0.1-0.3-0.1-0.5-0.2
			c-7.6-4-22.5-7.9-37.4-9.6c0,1.1,0,2.5,0,4c14.9,0.3,29.7,2.7,37.3,6c0.5,0,1,0,1.5-0.1c0.1,0,0.1,0,0.2,0c-0.1,0-0.2,0-0.3,0
			C68.2,69.1,68.1,69.1,68,69.1z"/>
		<path class="st2" d="M3.7,29.9C3.7,29.9,3.7,29.9,3.7,29.9C3.7,29.9,3.7,29.9,3.7,29.9L3.7,29.9c0-0.1,0-0.1,0-0.1
			c0-0.1,0-0.1,0-0.2c0.1-1.1,0.7-1.9,1.6-2.3c0.1,0,0.1-0.1,0.1-0.1c0,0,0.1,0,0.1-0.1c0.1,0,0.1,0,0.1-0.1c0.1,0,0.1,0,0.1-0.1
			c0,0,0.1,0,0.1,0C6,27,6,27,6.1,26.9c0,0,0.1,0,0.1,0c0.1,0,0.1,0,0.2,0c0,0,0.1,0,0.1,0c0,0,0.1,0,0.1,0c0,0,0.1,0,0.1,0l0,0l0,0
			c14.2-0.4,27.1,1.4,38.4,4.5c0-0.2,0.1-0.4,0.1-0.6c0,0,0,0,0-0.1l0,0c0-7.5,0-18.4,0-26.4c0-0.1,0-0.2,0-0.3
			c0-0.4-0.1-0.7-0.2-1.1c-0.2-0.5-0.5-0.9-0.9-1.3c0,0-0.1,0-0.1-0.1c-0.1,0-0.1-0.1-0.1-0.1c-0.4-0.2-0.7-0.4-1.2-0.5
			c0,0,0,0-0.1,0c-0.1,0-0.1,0-0.2,0c-0.3,0-0.6,0-0.8,0c-0.1,0-0.3,0.1-0.4,0.1C26.8,5.1,11.7,16.9,6,23.5c-0.5,0.6-1,1.2-1.4,2
			c0,0,0,0.1-0.1,0.1c-0.5,1-0.9,2.2-0.9,3.4v0c0,0.1,0,0.2,0,0.4c0,0.1,0,0.2,0,0.4"/>
		<g id="Logo_x5F_Settlecard_7_">
			<path class="st3" d="M71.3,66L71.3,66c0-3.7,0-16.8,0-19.6v0v0c0-0.1,0-0.2,0-0.3c0-0.1,0-0.3,0-0.4c0-0.1,0-0.2,0-0.3
				c0-0.1,0-0.3-0.1-0.5c0-0.1,0-0.1-0.1-0.2c0-0.2-0.1-0.4-0.1-0.6c0,0,0-0.1,0-0.1c-0.1-0.2-0.1-0.4-0.2-0.6c0,0,0,0,0-0.1
				c-0.1-0.2-0.2-0.4-0.3-0.6c0,0,0,0,0-0.1c-0.1-0.2-0.2-0.4-0.3-0.5c-0.7-1.1-1.8-2.1-2.9-2.7c-0.2-0.1-0.3-0.2-0.5-0.3
				C51.1,31.5,30.9,25.7,6.7,26.5l0,0l0,0c0,0-0.1,0-0.1,0c0,0-0.1,0-0.1,0c0,0-0.1,0-0.1,0c-0.1,0-0.1,0-0.2,0c0,0-0.1,0-0.1,0
				c-0.1,0-0.1,0-0.2,0.1c0,0-0.1,0-0.1,0c-0.1,0-0.1,0-0.1,0.1c-0.1,0-0.1,0-0.1,0.1c0,0-0.1,0-0.1,0.1c-0.1,0-0.1,0.1-0.1,0.1
				c-0.8,0.4-1.5,1.3-1.6,2.3c0,0.1,0,0.1,0,0.2c0,0,0,0.1,0,0.1l0,0l0,0l0,0c0,3.1,0,23.7,0,27.4l0,0l0,0c0,0.1,0,0.3,0.1,0.4
				c0,0,0,0.1,0,0.1c0,0.1,0.1,0.2,0.1,0.3c0,0.1,0.1,0.1,0.1,0.1C4,57.9,4,57.9,4,58c0,0.1,0.1,0.1,0.1,0.1
				c0.1,0.1,0.1,0.1,0.1,0.1c0,0,0.1,0.1,0.1,0.1c0.1,0.1,0.1,0.1,0.2,0.1c0,0,0.1,0,0.1,0.1c0.1,0.1,0.2,0.1,0.3,0.1c0,0,0,0,0.1,0
				c0.1,0,0.2,0.1,0.3,0.1c0,0,0.1,0,0.1,0c0,0,0.1,0,0.1,0c0.1,0,0.1,0,0.1,0c0,0,0.1,0,0.1,0c19.7-2.2,49.3,3.8,61.1,10
				c0.1,0.1,0.3,0.1,0.5,0.2h0c0.1,0,0.2,0.1,0.3,0.1c0,0,0.1,0,0.1,0c0.1,0,0.1,0,0.2,0c0.1,0,0.2,0,0.3,0c0.1,0,0.3,0,0.4,0h0
				c0.1,0,0.2,0,0.3-0.1c0,0,0.1,0,0.1,0c0.1,0,0.1,0,0.2-0.1c0.8-0.3,1.6-0.9,1.8-1.8c0,0,0-0.1,0.1-0.1c0,0,0,0,0-0.1
				C71.3,66.6,71.4,66.4,71.3,66C71.3,66.1,71.3,66,71.3,66z"/>
		</g>
	</g>
	<g id="MARK_MONO_VIOLET">
	</g>
	<g id="MARK_MONO_WHITE">
	</g>
	<g id="TEXT_VIOLET_1_">
	</g>
	<g id="TEXT_WHITE">
		<g id="se_x2B__x2B_lecard_copy_4_10_">
			<g>
				<path class="st4" d="M171.5,45.7h-8.2v-7.9c0-0.5-0.4-1-1-1H158c-0.5,0-1,0.4-1,1v7.9h-8.2c-0.5,0-1,0.4-1,1V50c0,0.5,0.4,1,1,1
					h8.2v9.4c0,0.5,0.4,1,1,1h4.3c0.5,0,1-0.4,1-1V51h8.2c0.5,0,1-0.4,1-1v-3.3C172.5,46.1,172.1,45.7,171.5,45.7z M199.3,45.7h-8.2
					v-7.9c0-0.5-0.4-1-1-1h-4.3c-0.5,0-1,0.4-1,1v7.9h-8.2c-0.5,0-1,0.4-1,1V50c0,0.5,0.4,1,1,1h8.2v9.4c0,0.5,0.4,1,1,1h4.3
					c0.5,0,1-0.4,1-1V51h8.2c0.5,0,1-0.4,1-1v-3.3C200.2,46.1,199.8,45.7,199.3,45.7z M133.1,36.2c-3.7,0-6.9,1.2-9.5,3.6
					s-3.8,5.6-3.8,9.3c0,4,1.2,7.2,3.5,9.4c2.3,2.2,5.6,3.3,9.6,3.3c4,0,7.3-0.8,9.8-2.3c0.3-0.2,0.5-0.5,0.5-0.9v-3.4
					c0-0.4-0.2-0.7-0.5-0.9c-0.2-0.1-0.3-0.1-0.5-0.1c-0.2,0-0.4,0.1-0.5,0.2c-2.3,1.6-4.9,2.3-7.7,2.3c-2.4,0-4.3-0.6-5.6-1.8
					c-1.1-1-1.8-2.3-2-4.1H144c0.5,0,1-0.4,1-1v-1.9c0-3.7-1.1-6.6-3.1-8.7C139.8,37.3,136.8,36.2,133.1,36.2z M126.5,45.9
					c0.4-1.2,1-2.2,2-3c1.2-1.1,2.7-1.6,4.5-1.6c1.8,0,3.2,0.5,4.2,1.5c0.8,0.8,1.2,1.8,1.4,3.2L126.5,45.9L126.5,45.9z M114.5,49.4
					c-0.7-0.5-1.6-1.1-2.6-1.5c-1-0.4-2.1-0.8-3.2-1.2c-0.9-0.3-1.7-0.5-2.3-0.8c-0.6-0.2-1.1-0.5-1.6-0.8c-0.4-0.2-0.6-0.5-0.8-0.8
					c-0.2-0.2-0.2-0.5-0.2-0.9c0-0.3,0.1-0.5,0.2-0.8c0.2-0.3,0.4-0.5,0.8-0.7c0.4-0.2,0.8-0.4,1.4-0.5c0.5-0.2,1.2-0.2,1.9-0.2
					c2.4,0,4.5,0.5,6.3,1.5c0.2,0.1,0.3,0.1,0.5,0.1c0.2,0,0.4-0.1,0.5-0.2c0.3-0.2,0.5-0.5,0.5-0.9v-3.7c0-0.4-0.3-0.8-0.6-0.9
					c-1.9-0.7-4.1-1.1-6.5-1.1c-1.4,0-2.7,0.2-4,0.4c-1.3,0.3-2.5,0.8-3.6,1.4c-1.1,0.6-1.9,1.4-2.6,2.3c-0.7,1-1,2.1-1,3.4
					c0,1,0.2,1.9,0.5,2.7c0.4,0.8,0.9,1.5,1.6,2.1c0.6,0.5,1.5,1.1,2.5,1.5c0.9,0.4,2,0.9,3.2,1.2c0.8,0.3,1.6,0.5,2.4,0.8
					c0.6,0.2,1.2,0.5,1.7,0.8c0.4,0.3,0.8,0.5,1,0.9c0.2,0.2,0.3,0.5,0.3,0.9c0,0.5,0,2.2-4.6,2.2c-2.6,0-5-0.7-7.1-2.1
					c-0.2-0.1-0.3-0.2-0.5-0.2c-0.2,0-0.3,0.1-0.5,0.1c-0.3,0.2-0.5,0.5-0.5,0.9v3.9c0,0.4,0.2,0.8,0.6,0.9c2.1,1,4.6,1.5,7.5,1.5
					c1.5,0,2.9-0.2,4.2-0.4c1.4-0.3,2.6-0.8,3.6-1.3c1.1-0.6,2-1.4,2.6-2.4c0.7-1,1-2.2,1-3.5c0-1.1-0.2-2.1-0.6-2.9
					C115.8,50.7,115.2,50,114.5,49.4z M268.4,37.4c-1.9-0.8-4.1-1.2-6.6-1.2c-4.4,0-8,1.2-10.7,3.7c-2.7,2.4-4.1,5.7-4.1,9.7
					c0,3.6,1.3,6.6,3.8,8.9c2.5,2.3,5.8,3.4,9.9,3.4c3,0,5.6-0.5,7.7-1.7c0.3-0.2,0.5-0.5,0.5-0.9v-3.5c0-0.4-0.2-0.7-0.5-0.9
					c-0.2-0.1-0.3-0.1-0.5-0.1c-0.2,0-0.4,0.1-0.5,0.2c-1.9,1.2-3.9,1.8-6,1.8c-2.5,0-4.4-0.6-5.9-2.1c-1.5-1.4-2.2-3.1-2.2-5.6
					c0-2.4,0.8-4.3,2.3-5.8c1.6-1.5,3.5-2.2,6-2.2c2.1,0,4,0.5,5.8,1.6c0.2,0.1,0.3,0.2,0.5,0.2c0.2,0,0.3-0.1,0.5-0.1
					c0.3-0.2,0.5-0.5,0.5-0.9v-3.7C269.1,38,268.8,37.6,268.4,37.4z M312.2,37.1c-1.1-0.5-2.6-0.8-4.4-0.8c-5.2,0-8,2.6-8,7.6v16.5
					c0,0.5,0.4,1,1,1h4.3c0.5,0,1-0.4,1-1V44.6c0-1.2,0.2-2.1,0.6-2.5c0.4-0.4,1.2-0.6,2.3-0.6c0.9,0,1.6,0.2,2.2,0.6
					c0.2,0.1,0.4,0.2,0.5,0.2c0.2,0,0.3-0.1,0.5-0.1c0.3-0.2,0.5-0.5,0.5-0.9V38C312.8,37.6,312.6,37.3,312.2,37.1z M336,39.3
					c-2.5-2-6.4-3-11.4-3c-0.1,0-0.1,0-0.1,0c-0.2,0-0.4,0-0.8,0c-5.2,0-8,2.6-8,7.6v16.5c0,0.5,0.4,1,1,1h4.3c0.1,0,0.2,0,0.2,0
					h3.1c4.7,0,8.5-1.2,11.3-3.5c2.9-2.4,4.4-5.5,4.4-9.4C340,44.5,338.6,41.4,336,39.3z M331.9,54.3c-1.7,1.4-4.1,2.1-7.1,2.1H322
					V44c0.1-0.9,0.3-1.6,0.6-2c0.4-0.4,1-0.6,1.9-0.6h0.4c8.4,0,9.3,4.2,9.3,7.3C334.3,51.1,333.5,53,331.9,54.3z M231.5,36.2
					c-3.7,0-6.9,1.2-9.5,3.6c-2.5,2.4-3.8,5.6-3.8,9.3c0,4,1.2,7.2,3.5,9.4c2.3,2.2,5.6,3.3,9.6,3.3c4,0,7.3-0.8,9.8-2.3
					c0.3-0.2,0.5-0.5,0.5-0.9v-3.4c0-0.4-0.2-0.7-0.5-0.9c-0.2-0.1-0.3-0.1-0.5-0.1c-0.2,0-0.4,0.1-0.5,0.2
					c-2.3,1.6-4.9,2.3-7.7,2.3c-2.4,0-4.3-0.6-5.6-1.8c-1.1-1-1.8-2.3-2-4.1h17.7c0.5,0,1-0.4,1-1v-1.9c0-3.7-1.1-6.6-3.1-8.7
					C238.2,37.3,235.2,36.2,231.5,36.2z M224.9,45.9c0.4-1.2,1-2.2,2-3c1.2-1.1,2.7-1.6,4.5-1.6c1.8,0,3.2,0.5,4.2,1.5
					c0.8,0.8,1.2,1.8,1.4,3.2L224.9,45.9L224.9,45.9z M215.5,56.2c-0.2-0.1-0.3-0.1-0.5-0.1c-0.2,0-0.4,0.1-0.5,0.2
					c-0.6,0.4-1.4,0.6-2.2,0.6c-1.1,0-1.9-0.2-2.3-0.6c-0.4-0.4-0.6-1.4-0.6-2.5V37.9c0-0.5-0.4-1-1-1H204c-0.5,0-1,0.4-1,1v16.5
					c0,5,2.8,7.6,8,7.6c1.8,0,3.3-0.3,4.4-0.8c0.4-0.2,0.6-0.5,0.6-0.9v-3.1C216,56.7,215.8,56.4,215.5,56.2z M284.9,36.2
					c-3.6,0-6.8,0.8-9.5,2.3c-0.3,0.2-0.5,0.5-0.5,0.9v3.7c0,0.4,0.2,0.7,0.5,0.9c0.2,0.1,0.3,0.1,0.5,0.1c0.2,0,0.4-0.1,0.6-0.2
					c2.4-1.7,5.1-2.6,8.1-2.6c2.8,0,4.2,1.2,4.4,3.9l-7.1,0.9c-8,1-9.7,5.1-9.7,8.4c0,2.3,0.9,4.2,2.6,5.6c1.7,1.4,4,2,6.9,2
					c3,0,5.4-0.9,7.3-2.5v1c0,0.5,0.4,1,1,1h4.3c0.5,0,1-0.4,1-1V45.7C295.2,41.4,293.4,36.2,284.9,36.2z M289,51.2
					c0,1.7-0.6,3-1.7,4.1c-1.2,1.1-2.7,1.6-4.5,1.6c-1.3,0-2.4-0.3-3.1-0.9c-0.7-0.5-1-1.1-1-1.9c0-1.5,0.6-2.1,1-2.3
					c0.9-0.5,2.3-0.9,4.1-1.1l5.3-0.6L289,51.2L289,51.2z"/>
			</g>
		</g>
	</g>
</g>
<g id="MARK_ONLY">
	<g id="MARK_GRAD_2_">
	</g>
	<g id="MARK_FLAT_2_">
	</g>
	<g id="MARK_MONO_VIOLET_2_">
	</g>
	<g id="MARK_MONO_WHITE_2_">
	</g>
</g>
</svg>
