<?xml version="1.0" encoding="utf-8"?>
<!-- Generator: Adobe Illustrator 21.0.2, SVG Export Plug-In . SVG Version: 6.00 Build 0)  -->
<svg version="1.1" id="Шар_1" xmlns="http://www.w3.org/2000/svg" xmlns:xlink="http://www.w3.org/1999/xlink" x="0px" y="0px"
	 viewBox="0 0 360 58" style="enable-background:new 0 0 360 58;" xml:space="preserve">
<style type="text/css">
	.st0{fill:#1B013B;}
</style>
<g>
	<path class="st0" d="M68.4,17.8c-0.4-1.2-0.8-2.5-1.2-3.8c-0.3,1.4-0.7,2.7-1.1,3.9c-0.4,1.2-0.8,2.2-1.1,3.1l-4.6,13.7h13.8
		l-4.7-13.8C69.2,20,68.8,19,68.4,17.8z"/>
	<path class="st0" d="M27.2,14.4c-0.7-0.7-1.6-1.2-2.7-1.6c-1.1-0.4-2.3-0.6-3.8-0.6h-6v15.9h6.1c3,0,5.2-0.7,6.6-2.2
		c1.4-1.5,2-3.5,2-6.1c0-1.1-0.2-2.2-0.5-3.1C28.4,15.9,27.9,15.1,27.2,14.4z"/>
	<path class="st0" d="M361-0.8h-3v0c-1.2,0-359.4,0-359.4,0v59h360V58h2.4V-0.8z M39.7,26.9c-0.8,2.1-2,3.9-3.7,5.4
		s-3.8,2.7-6.3,3.5s-5.5,1.3-9,1.3h-6v16.8H3V3.6h17.7c3.5,0,6.6,0.4,9.1,1.3c2.5,0.8,4.6,2,6.3,3.5c1.6,1.5,2.9,3.2,3.6,5.2
		c0.8,2,1.2,4.2,1.2,6.5C41,22.5,40.6,24.8,39.7,26.9z M83.7,53.8c-1,0-1.8-0.2-2.4-0.7c-0.6-0.5-1.1-1.1-1.4-1.8l-3-8.8H57.8
		l-3,8.8c-0.3,0.6-0.7,1.2-1.4,1.7c-0.7,0.5-1.5,0.8-2.4,0.8h-9.1L61.4,3.5h11.9l19.5,50.3H83.7z M119.6,34.7v19.1h-11.7V34.7
		L89.7,3.6H100c1,0,1.8,0.2,2.4,0.7c0.6,0.5,1.1,1.1,1.5,1.8l7.1,14.6c0.6,1.1,1.1,2.2,1.6,3.2s0.9,2,1.3,2.9c0.3-1,0.7-2,1.2-3
		c0.4-1,1-2.1,1.6-3.2l7-14.6c0.2-0.3,0.4-0.6,0.6-0.9c0.2-0.3,0.5-0.6,0.8-0.8c0.3-0.2,0.7-0.4,1.1-0.6c0.4-0.1,0.8-0.2,1.3-0.2
		h10.3L119.6,34.7z M192.2,53.8V24.9c0-0.7,0-1.4,0.1-2.2c0-0.8,0.1-1.6,0.2-2.4l-13.3,25.8c-0.4,0.8-1,1.4-1.7,1.8
		c-0.7,0.4-1.5,0.6-2.4,0.6h-1.6c-0.9,0-1.7-0.2-2.4-0.6c-0.7-0.4-1.3-1-1.7-1.8l-13.3-25.9c0.1,0.8,0.1,1.6,0.2,2.4
		c0,0.8,0.1,1.5,0.1,2.2v28.9h-10.3V3.4h8.9c0.5,0,0.9,0,1.3,0c0.4,0,0.7,0.1,1,0.2c0.3,0.1,0.6,0.3,0.8,0.5c0.2,0.2,0.5,0.6,0.7,1
		l12.9,25.5c0.5,0.9,0.9,1.8,1.3,2.7c0.4,0.9,0.8,1.9,1.2,2.9c0.4-1,0.8-2,1.2-3c0.4-1,0.9-1.9,1.4-2.8L189.7,5
		c0.2-0.4,0.5-0.8,0.7-1c0.2-0.2,0.5-0.4,0.8-0.5s0.6-0.2,1-0.2c0.4,0,0.8,0,1.3,0h8.9l0.1,50.5H192.2z M248.8,12.5h-20.6v11.7H244
		v8.6h-15.8v12h20.6v9h-32.4V3.5h32.4V12.5z M298,53.8c-0.9,0-1.6-0.1-2.3-0.4c-0.6-0.3-1.2-0.8-1.8-1.5l-23.7-30
		c0.1,0.9,0.2,1.8,0.2,2.6s0.1,1.6,0.1,2.4v26.9h-10.3V3.5h6.1c0.5,0,0.9,0,1.3,0.1c0.3,0,0.7,0.1,0.9,0.3c0.3,0.1,0.5,0.3,0.8,0.5
		c0.3,0.2,0.5,0.5,0.9,0.9l23.9,30.2c-0.1-1-0.2-1.9-0.2-2.8c0-0.9-0.1-1.8-0.1-2.6V3.5h10.3l0,50.3H298z M354.3,12.8h-14.1v41
		h-11.7v-41h-14.1V3.6h39.9V12.8z"/>
</g>
</svg>
