<?xml version="1.0" encoding="utf-8"?>
<!-- Generator: Adobe Illustrator 21.0.2, SVG Export Plug-In . SVG Version: 6.00 Build 0)  -->
<svg version="1.1" id="Шар_1" xmlns="http://www.w3.org/2000/svg" xmlns:xlink="http://www.w3.org/1999/xlink" x="0px" y="0px"
	 viewBox="0 0 552 110" style="enable-background:new 0 0 552 110;" xml:space="preserve">
<style type="text/css">
	.st0{fill:#1B013B;}
</style>
<g>
	<path class="st0" d="M168.7,31.4c-2.4-2.8-5.4-4.9-8.9-6.3c-3.5-1.5-7.5-2.2-11.9-2.2c-4.5,0-8.5,0.7-12,2.2s-6.5,3.6-8.9,6.3
		c-2.4,2.8-4.3,6.1-5.6,10.1s-1.9,8.4-1.9,13.4s0.6,9.5,1.9,13.5s3.1,7.3,5.6,10.1c2.4,2.8,5.4,4.9,8.9,6.3c3.5,1.4,7.5,2.2,12,2.2
		s8.4-0.7,11.9-2.2c3.5-1.4,6.4-3.6,8.9-6.3c2.4-2.8,4.3-6.1,5.6-10.1c1.3-4,1.9-8.5,1.9-13.5s-0.6-9.4-1.9-13.4
		S171.1,34.1,168.7,31.4z"/>
	<path class="st0" d="M53.5,26.4c-1.4-1.4-3.2-2.4-5.3-3.1c-2.1-0.7-4.7-1.1-7.6-1.1H28.5v31.9h12.1c6.1,0,10.4-1.4,13.1-4.3
		c2.7-2.9,4-6.9,4-12.1c0-2.3-0.3-4.4-1-6.3C55.9,29.4,54.9,27.7,53.5,26.4z"/>
	<path class="st0" d="M508.8,25.9c-2.9-2.5-7.3-3.7-13.3-3.7h-9.4V52h9.4c3.2,0,5.9-0.4,8.1-1.2s4.1-1.9,5.5-3.3
		c1.4-1.4,2.5-3.1,3.1-5s1-4,1-6.2C513.1,31.8,511.7,28.3,508.8,25.9z"/>
	<path class="st0" d="M547.5-1.8v0.2c-6.1,0-547.9,0-547.9,0v113h547.9v0.1h10V-1.8H547.5z M78.6,51.3c-1.6,4.2-4.1,7.8-7.4,10.8
		s-7.5,5.3-12.6,7c-5.1,1.7-11.1,2.5-18,2.5H28.5v33.6H5.2V4.7h35.5c7.1,0,13.2,0.8,18.2,2.5c5.1,1.7,9.3,4,12.6,6.9
		c3.3,2.9,5.7,6.4,7.3,10.4c1.6,4,2.3,8.3,2.3,13C81,42.5,80.2,47.1,78.6,51.3z M196.3,75.2c-2.5,6.3-6,11.7-10.6,16.3
		c-4.6,4.6-10,8.2-16.5,10.9c-6.4,2.6-13.5,3.9-21.3,3.9c-7.8,0-14.9-1.3-21.4-3.9c-6.4-2.6-11.9-6.2-16.5-10.9
		c-4.6-4.6-8.1-10.1-10.6-16.3c-2.5-6.3-3.8-13-3.8-20.3c0-7.3,1.3-14,3.8-20.3c2.5-6.3,6-11.7,10.6-16.3
		c4.6-4.6,10.1-8.2,16.5-10.8s13.6-3.9,21.4-3.9c7.8,0,14.9,1.3,21.3,4c6.4,2.6,11.9,6.3,16.5,10.9c4.6,4.6,8.1,10,10.6,16.3
		s3.8,13,3.8,20.2C200,62.2,198.8,68.9,196.3,75.2z M325.6,105.2h-21.1l-18.9-62.3c-0.4-1-0.7-2-1-3.2s-0.6-2.4-1-3.7
		c-0.3,1.3-0.6,2.5-1,3.7c-0.3,1.2-0.7,2.2-1,3.2l-19.2,62.3h-21.1l-31-100.5h19.5c2,0,3.7,0.5,5.1,1.4c1.4,0.9,2.2,2.1,2.7,3.7
		l13.8,52.4c0.4,1.7,0.8,3.5,1.2,5.4c0.4,2,0.8,4,1.2,6.1c0.8-4.3,1.8-8.2,3-11.5l16.3-52.4c0.4-1.3,1.3-2.4,2.7-3.5
		c1.4-1,3-1.6,4.9-1.6h6.9c2,0,3.7,0.5,4.9,1.4c1.2,0.9,2.2,2.2,2.8,3.6l16.1,52.4c1.2,3.2,2.2,6.9,3,11c0.4-2.1,0.7-4,1.1-5.8
		c0.4-1.8,0.8-3.5,1.2-5.1l13.8-52.4c0.4-1.3,1.2-2.5,2.6-3.5c1.4-1,3-1.5,5-1.5h18.3L325.6,105.2z M439.9,22.6h-41.2v23.5h31.6
		v17.2h-31.6v24h41.2v17.9h-64.7V4.7h64.7V22.6z M523.9,105.1v0.1c-3.9,0-6.7-1.5-8.4-4.4l-16.7-29.2c-0.8-1.2-1.7-2.1-2.6-2.7
		c-1-0.6-2.3-0.9-4.1-0.9h-5.9v37.2h-23.4V4.7h32.7c7.3,0,13.5,0.7,18.6,2.2c5.1,1.5,9.3,3.6,12.6,6.2c3.2,2.7,5.6,5.8,7.1,9.4
		s2.2,7.6,2.2,11.9c0,3.3-0.4,6.3-1.3,9.2c-0.9,2.9-2.2,5.6-3.9,8c-1.7,2.5-3.8,4.7-6.3,6.6c-2.5,1.9-5.4,3.5-8.7,4.8
		c1.5,0.8,2.9,1.8,4.3,2.9c1.3,1.2,2.5,2.6,3.6,4.2l21.4,35H523.9z"/>
</g>
</svg>
