<?xml version="1.0" encoding="utf-8"?>
<!-- Generator: Adobe Illustrator 21.0.2, SVG Export Plug-In . SVG Version: 6.00 Build 0)  -->
<svg version="1.1" id="Шар_1" xmlns="http://www.w3.org/2000/svg" xmlns:xlink="http://www.w3.org/1999/xlink" x="0px" y="0px"
	 viewBox="0 0 900 350" style="enable-background:new 0 0 900 350;" xml:space="preserve">
<style type="text/css">
	.st0{fill:url(#SVGID_1_);}
	.st1{display:none;}
	.st2{display:inline;fill:#180438;}
</style>
<linearGradient id="SVGID_1_" gradientUnits="userSpaceOnUse" x1="113.4885" y1="364.7487" x2="790.9641" y2="-26.392">
	<stop  offset="0" style="stop-color:#FF0096"/>
	<stop  offset="0.9988" style="stop-color:#FFF600"/>
</linearGradient>
<path class="st0" d="M502.1,66.5C616.9,68.3,682.6,48,782.5,45.2c63.9,0,90.7,50,99,138.8c8.3,154.6-101.8,152.7-395.2,137
	C270.8,309.4,65.3,386.7,34.8,205.3C29.2,160.9,14.4-8.5,181,11.9S387.4,64.6,502.1,66.5z"/>
<g class="st1">
	<path class="st2" d="M334.7,170.7c-0.4-1.2-0.8-2.5-1.2-3.8c-0.3,1.4-0.7,2.7-1.1,3.9c-0.4,1.2-0.8,2.2-1.1,3.1l-4.6,13.7h13.8
		l-4.7-13.8C335.5,172.9,335.1,171.9,334.7,170.7z"/>
	<path class="st2" d="M264.9,152.1v59h360v-59H264.9z M306,179.8c-0.8,2.1-2,3.9-3.7,5.4c-1.7,1.5-3.8,2.7-6.3,3.5
		c-2.5,0.8-5.5,1.3-9,1.3H281v16.8h-11.7v-50.3H287c3.5,0,6.6,0.4,9.1,1.3c2.5,0.8,4.6,2,6.3,3.5c1.6,1.5,2.9,3.2,3.6,5.2
		c0.8,2,1.2,4.2,1.2,6.5C307.3,175.4,306.9,177.7,306,179.8z M350,206.7c-1,0-1.8-0.2-2.4-0.7c-0.6-0.5-1.1-1.1-1.4-1.8l-3-8.8
		h-19.1l-3,8.8c-0.3,0.6-0.7,1.2-1.4,1.7c-0.7,0.5-1.5,0.8-2.4,0.8h-9.1l19.5-50.3h11.9l19.5,50.3H350z M385.9,187.6v19.1h-11.7
		v-19.1L356,156.5h10.3c1,0,1.8,0.2,2.4,0.7c0.6,0.5,1.1,1.1,1.5,1.8l7.1,14.6c0.6,1.1,1.1,2.2,1.6,3.2s0.9,2,1.3,2.9
		c0.3-1,0.7-2,1.2-3c0.4-1,1-2.1,1.6-3.2l7-14.6c0.2-0.3,0.4-0.6,0.6-0.9c0.2-0.3,0.5-0.6,0.8-0.8c0.3-0.2,0.7-0.4,1.1-0.6
		c0.4-0.1,0.8-0.2,1.3-0.2h10.3L385.9,187.6z M468.8,206.7h-10.3v-28.9c0-0.7,0-1.4,0.1-2.2c0-0.8,0.1-1.6,0.2-2.4l-13.3,25.8
		c-0.4,0.8-1,1.4-1.7,1.8c-0.7,0.4-1.5,0.6-2.4,0.6h-1.6c-0.9,0-1.7-0.2-2.4-0.6c-0.7-0.4-1.3-1-1.7-1.8l-13.3-25.9
		c0.1,0.8,0.1,1.6,0.2,2.4c0,0.8,0.1,1.5,0.1,2.2v28.9h-10.3v-50.3h8.9c0.5,0,0.9,0,1.3,0s0.7,0.1,1,0.2c0.3,0.1,0.6,0.3,0.8,0.5
		c0.2,0.2,0.5,0.6,0.7,1l12.9,25.5c0.5,0.9,0.9,1.8,1.3,2.7c0.4,0.9,0.8,1.9,1.2,2.9c0.4-1,0.8-2,1.2-3c0.4-1,0.9-1.9,1.4-2.8
		l12.9-25.4c0.2-0.4,0.5-0.8,0.7-1c0.2-0.2,0.5-0.4,0.8-0.5c0.3-0.1,0.6-0.2,1-0.2s0.8,0,1.3,0h8.9V206.7z M515.1,165.4h-20.6v11.7
		h15.8v8.6h-15.8v12h20.6v9h-32.4v-50.3h32.4V165.4z M570.4,206.7h-6.1c-0.9,0-1.6-0.1-2.3-0.4c-0.6-0.3-1.2-0.8-1.8-1.5l-23.7-30
		c0.1,0.9,0.2,1.8,0.2,2.6c0,0.8,0.1,1.6,0.1,2.4v26.9h-10.3v-50.3h6.1c0.5,0,0.9,0,1.3,0.1c0.3,0,0.7,0.1,0.9,0.3
		c0.3,0.1,0.5,0.3,0.8,0.5c0.3,0.2,0.5,0.5,0.9,0.9l23.9,30.2c-0.1-1-0.2-1.9-0.2-2.8c0-0.9-0.1-1.8-0.1-2.6v-26.6h10.3V206.7z
		 M620.6,165.7h-14.1v41h-11.7v-41h-14.1v-9.2h39.9V165.7z"/>
	<path class="st2" d="M293.5,167.3c-0.7-0.7-1.6-1.2-2.7-1.6c-1.1-0.4-2.3-0.6-3.8-0.6H281v15.9h6.1c3,0,5.2-0.7,6.6-2.2
		s2-3.5,2-6.1c0-1.1-0.2-2.2-0.5-3.1C294.7,168.8,294.2,168,293.5,167.3z"/>
</g>
</svg>
