<?xml version="1.0" encoding="utf-8"?>
<!-- Generator: Adobe Illustrator 21.0.2, SVG Export Plug-In . SVG Version: 6.00 Build 0)  -->
<svg version="1.1" id="Шар_1" xmlns="http://www.w3.org/2000/svg" xmlns:xlink="http://www.w3.org/1999/xlink" x="0px" y="0px"
	 viewBox="0 0 300 350" style="enable-background:new 0 0 300 350;" xml:space="preserve">
<style type="text/css">
	.st0{fill:none;}
	.st1{fill:#FF00F6;}
	.st2{fill:url(#SVGID_1_);}
	.st3{fill:#9600FF;}
	.st4{fill:#BB29FF;}
</style>
<rect x="191.6" y="92.5" transform="matrix(0.7071 -0.7071 0.7071 0.7071 -17.5561 182.592)" class="st0" width="40" height="40"/>
<path class="st1" d="M109.2,107.4L84.4,110c-5.1,0.7-10,2.5-14.3,5.3l-59.5,40.2c-2.8,1.9-4.5,5-4.6,8.4c-0.1,2.2,1.4,4.2,3.5,4.8
	l39.4,11.7c5.4,1.6,11.2-0.4,14.4-5.1L77,154"/>
<path class="st1" d="M165.5,315.6l40.5-59.3c2.9-4.3,4.7-9.2,5.4-14.3l2.9-25.1l0,0c-18.2,14.8-34.2,24.5-40.6,28.2l-3,1.7
	c-0.1-0.1-0.3-0.2-0.5-0.3L146,262.8c-4.7,3.1-6.8,9-5.2,14.4l11.5,39.5c0.6,2.1,2.6,3.6,4.8,3.5
	C160.5,320.1,163.6,318.4,165.5,315.6z"/>
<radialGradient id="SVGID_1_" cx="-0.2434" cy="203.7584" r="153.096" gradientTransform="matrix(0.7071 0.7071 0.7071 -0.7071 55.1937 267.1174)" gradientUnits="userSpaceOnUse">
	<stop  offset="0" style="stop-color:#560591"/>
	<stop  offset="7.412827e-02" style="stop-color:#590594"/>
	<stop  offset="0.6245" style="stop-color:#6D03A7"/>
	<stop  offset="1" style="stop-color:#7403AE"/>
</radialGradient>
<path class="st2" d="M279.6,40.9C168.1,3.9,91.1,129.2,79,150.5l-1.7,2.9c4.3,7.2,18.6,29.6,41.1,52.1s45,36.9,52.2,41.3l3-1.7
	C195,233,320.2,155.7,283.3,44.6C282.7,42.8,281.3,41.5,279.6,40.9z"/>
<path class="st3" d="M85.2,140.2c-2.8,4.4-4.9,8-6.2,10.3l-1.7,2.9c3.9,6.5,15.8,25.2,34.4,45.2l13.6,13.6
	c20,18.7,38.8,30.6,45.3,34.6l3-1.7c2.3-1.3,5.9-3.4,10.3-6.2c0,0-30.2-18.1-55.7-43.5C103.7,170.9,85.2,140.2,85.2,140.2z"/>
<ellipse transform="matrix(0.7071 -0.7071 0.7071 0.7071 -17.2299 182.7675)" class="st4" cx="212" cy="112.2" rx="20" ry="20"/>
<ellipse transform="matrix(0.7071 -0.7071 0.7071 0.7071 -109.2997 144.5956)" class="st1" cx="119.9" cy="204.2" rx="58" ry="8"/>
</svg>
