<?xml version="1.0" encoding="utf-8"?>
<!-- Generator: Adobe Illustrator 21.0.2, SVG Export Plug-In . SVG Version: 6.00 Build 0)  -->
<svg version="1.1" id="Шар_1" xmlns="http://www.w3.org/2000/svg" xmlns:xlink="http://www.w3.org/1999/xlink" x="0px" y="0px"
	 viewBox="0 0 250 250" style="enable-background:new 0 0 250 250;" xml:space="preserve">
<style type="text/css">
	.st0{fill:#872BF5;}
	.st1{fill:#9153F4;}
	.st2{fill:#531A95;}
	.st3{fill:#BF54F6;}
</style>
<g>
	<path class="st0" d="M186.5,53.5c43,43,45.5,92.5-9.5,181.5c4-29-97-170-152-196C34,31,139,6,186.5,53.5z"/>
	<g>
		<path class="st1" d="M199.9,68.9c22,37,16.3,82-25.6,151.6c2.2,6.1,3.2,11,2.7,14.4C225.6,156.4,229.3,108.6,199.9,68.9z"/>
	</g>
	<path class="st2" d="M175.2,237.3c-7.2,4.7-46.7-29.7-87.8-84.6S16,46,24.4,39.7c10.1-7.7,50.7,29.7,91.8,84.6
		S185.9,230.5,175.2,237.3z"/>
	<polygon class="st3" points="83,147.5 113,120 121.2,130.9 85.5,150.5 	"/>
	<circle class="st3" cx="81" cy="151" r="5"/>
</g>
</svg>
