<?xml version="1.0" encoding="utf-8"?>
<!-- Generator: Adobe Illustrator 21.0.2, SVG Export Plug-In . SVG Version: 6.00 Build 0)  -->
<svg version="1.1" id="Шар_1" xmlns="http://www.w3.org/2000/svg" xmlns:xlink="http://www.w3.org/1999/xlink" x="0px" y="0px"
	 viewBox="0 0 750 750" style="enable-background:new 0 0 750 750;" xml:space="preserve">
<style type="text/css">
	.st0{display:none;}
	.st1{fill:url(#SVGID_1_);}
	.st2{fill:#EA3DF7;}
	.st3{fill:url(#SVGID_2_);}
	.st4{fill:#6A1CC1;}
	.st5{fill:#A22AE7;}
	.st6{fill:#8B26E3;}
	.st7{fill:#66DFE8;}
	.st8{display:inline;fill:#872BF5;}
	.st9{display:inline;}
	.st10{fill:#9153F4;}
	.st11{display:inline;fill:#531A95;}
	.st12{display:inline;fill:#BF54F6;}
</style>
<g id="nurXNR.tif" class="st0">
	
		<image style="display:inline;overflow:visible;" width="1506" height="1508" id="Layer_0" xlink:href="378136EA36A198F.png"  transform="matrix(0.5 0 0 0.5 -1.5 -2)">
	</image>
</g>
<linearGradient id="SVGID_1_" gradientUnits="userSpaceOnUse" x1="515.7162" y1="622.7806" x2="622.8245" y2="437.2636">
	<stop  offset="0" style="stop-color:#8F13E6"/>
	<stop  offset="1" style="stop-color:#8F68E6"/>
</linearGradient>
<polygon class="st1" points="411,478 489,360 742,557 646,698 "/>
<polygon class="st2" points="462.3,400.5 724.6,582.5 742,557 489,360 "/>
<linearGradient id="SVGID_2_" gradientUnits="userSpaceOnUse" x1="25" y1="222.5" x2="359" y2="222.5">
	<stop  offset="0" style="stop-color:#8F13E6"/>
	<stop  offset="1" style="stop-color:#8F68E6"/>
</linearGradient>
<polygon class="st3" points="25,177 101,66 359,255 275,379 "/>
<polygon class="st2" points="80.1,96.5 346.1,274.1 359,255 101,66 "/>
<polygon class="st4" points="261,424 397,251 494,329 359,500 "/>
<path class="st2" d="M490.4,330.4l-95.3-76c-4-3.2-4.7-9.2-1.5-13.2L439,173c40,14,91,50,123,96l-46,48
	C512.8,321,494.4,333.6,490.4,330.4z"/>
<path class="st5" d="M488.4,333.4l-95.3-76c-4-3.2-4.7-9.2-1.5-13.2L437,176c40,14,91,49,123,95l-58.4,60.9
	C498.4,336,492.4,336.6,488.4,333.4z"/>
<path class="st5" d="M413.3,429.2l-94.1-73.4c-4.7-3.7-5.6-10.6-1.9-15.4l21.4-27.4c3.7-4.7,10.6-5.6,15.4-1.9l94.1,73.4
	c4.7,3.7,5.6,10.6,1.9,15.4l-21.4,27.4C425,432,418.1,432.9,413.3,429.2z"/>
<path class="st6" d="M369.8,524.5c0,0-51.1-26.5-78.5-48s-52.8-57-52.8-57c-1.2-0.9-1.4-2.7-0.5-3.9L267,415
	c0.5-0.6,19.3,20.7,43.5,39.5C335.6,474,366,491,366,491l7.7,33C372.8,525.2,371,525.4,369.8,524.5z"/>
<path class="st7" d="M236,457.8l-2.4-2.1c-1.7-1.5-1.9-4.1-0.4-5.8l7.1-8.2c1.5-1.7,4.1-1.9,5.8-0.4l2.4,2.1
	c1.7,1.5,1.9,4.1,0.4,5.8l-7.1,8.2C240.4,459.1,237.8,459.3,236,457.8z"/>
<path class="st7" d="M335,534.8l-2.4-2.1c-1.7-1.5-1.9-4.1-0.4-5.8l7.1-8.2c1.5-1.7,4.1-1.9,5.8-0.4l2.4,2.1
	c1.7,1.5,1.9,4.1,0.4,5.8l-7.1,8.2C339.4,536.1,336.8,536.3,335,534.8z"/>
<g class="st0">
	<path class="st8" d="M283.5,493.5c43,43,45.5,92.5-9.5,181.5c4-29-97-170-152-196C131,471,236,446,283.5,493.5z"/>
	<g class="st9">
		<path class="st10" d="M296.9,508.9c22,37,16.3,82-25.6,151.6c2.2,6.1,3.2,11,2.7,14.4C322.6,596.4,326.3,548.6,296.9,508.9z"/>
	</g>
	<path class="st11" d="M272.2,677.3c-7.2,4.7-46.7-29.7-87.8-84.6S113,486,121.4,479.7c10.1-7.7,50.7,29.7,91.8,84.6
		S282.9,670.5,272.2,677.3z"/>
	<polygon class="st12" points="180,587.5 210,560 217.5,570.5 182.5,590.5 	"/>
	<circle class="st12" cx="178" cy="591" r="5"/>
</g>
</svg>
