<?xml version="1.0" encoding="utf-8"?>
<!-- Generator: Adobe Illustrator 21.0.2, SVG Export Plug-In . SVG Version: 6.00 Build 0)  -->
<svg version="1.1" id="Шар_1" xmlns="http://www.w3.org/2000/svg" xmlns:xlink="http://www.w3.org/1999/xlink" x="0px" y="0px"
	 viewBox="0 0 490 80" style="enable-background:new 0 0 490 80;" xml:space="preserve">
<style type="text/css">
	.st0{fill:#1B013B;}
</style>
<g>
	<path class="st0" d="M159.5,24.1c-0.6-1.7-1.1-3.5-1.7-5.5c-0.5,2-1,3.9-1.6,5.6s-1.1,3.2-1.6,4.4L148,48.2h19.7L161,28.5
		C160.6,27.3,160,25.8,159.5,24.1z"/>
	<path class="st0" d="M349.9,22.9c-1.7-2-3.8-3.5-6.3-4.5c-2.5-1.1-5.3-1.6-8.5-1.6s-6.1,0.5-8.6,1.6s-4.6,2.6-6.4,4.5
		c-1.7,2-3,4.4-4,7.2c-0.9,2.8-1.4,6-1.4,9.6s0.5,6.8,1.4,9.6s2.2,5.2,4,7.2c1.7,2,3.8,3.5,6.4,4.5c2.5,1,5.4,1.6,8.6,1.6
		s6-0.5,8.5-1.6c2.5-1,4.6-2.5,6.3-4.5s3-4.4,4-7.2c0.9-2.8,1.4-6.1,1.4-9.6s-0.5-6.7-1.4-9.6C352.9,27.3,351.6,24.9,349.9,22.9z"/>
	<path class="st0" d="M-1.6-1.2v82h492v-82C490.4-1.2-1.6-1.2-1.6-1.2z M53,62c-1.1,2.9-2.8,5.4-5,7.6s-4.9,3.8-8.1,5.1
		c-3.2,1.2-6.8,1.8-10.9,1.8c-2.2,0-4.5-0.2-6.8-0.7s-4.6-1.1-6.7-1.9c-2.2-0.8-4.2-1.8-6.1-3c-1.9-1.1-3.6-2.4-5-3.8l4.9-7.8
		c0.4-0.6,0.9-1,1.6-1.4c0.6-0.4,1.3-0.6,2.1-0.6c1,0,2,0.3,3,0.9c1,0.6,2.1,1.3,3.4,2.1s2.7,1.4,4.4,2.1c1.6,0.6,3.6,0.9,5.8,0.9
		c3,0,5.4-0.7,7-2c1.7-1.3,2.5-3.4,2.5-6.3c0-1.7-0.5-3-1.4-4.1s-2.1-1.9-3.6-2.6c-1.5-0.7-3.2-1.3-5.1-1.8s-3.9-1.1-5.9-1.7
		c-2-0.6-4-1.4-5.9-2.4c-1.9-0.9-3.6-2.2-5.1-3.7S9.4,35.3,8.5,33s-1.4-5.1-1.4-8.4c0-2.7,0.5-5.3,1.6-7.9s2.7-4.8,4.8-6.8
		s4.7-3.6,7.7-4.8c3.1-1.2,6.6-1.8,10.5-1.8c2.2,0,4.3,0.2,6.4,0.5s4.1,0.9,5.9,1.5c1.9,0.7,3.6,1.5,5.2,2.4s3.1,2,4.4,3.2l-4.1,7.7
		c-0.5,0.8-1,1.4-1.6,1.8S46.7,21,45.8,21c-0.8,0-1.6-0.2-2.4-0.7c-0.9-0.5-1.9-1-3-1.6s-2.4-1.1-3.8-1.6s-3-0.7-4.8-0.7
		c-3.1,0-5.4,0.7-7,2c-1.5,1.3-2.3,3.1-2.3,5.4c0,1.4,0.5,2.6,1.4,3.6s2.1,1.8,3.6,2.5s3.2,1.3,5.1,1.9c1.9,0.6,3.9,1.2,5.9,1.9
		s4,1.5,5.9,2.5s3.6,2.2,5.1,3.6c1.5,1.5,2.7,3.3,3.6,5.4c0.9,2.1,1.4,4.7,1.4,7.7C54.7,56,54.1,59.1,53,62z M102,75.7H85.3V17.1
		H65.1V3.9h57.1v13.2H102V75.7z M181.2,75.7c-1.4,0-2.6-0.3-3.5-1s-1.6-1.5-2-2.6l-4.2-12.5h-27.3L140,72.1c-0.4,0.9-1,1.7-1.9,2.5
		s-2.1,1.1-3.5,1.1h-13l27.8-71.8h17l27.8,71.8H181.2z M250.5,17.1h-20.2v58.6h-16.7V17.1h-20.2V3.9h57.1V17.1L250.5,17.1z
		 M281.8,75.7H265V3.9h16.8V75.7z M369.6,54.2c-1.8,4.5-4.3,8.4-7.6,11.7c-3.3,3.3-7.2,5.9-11.8,7.8c-4.6,1.9-9.7,2.8-15.2,2.8
		c-5.6,0-10.7-0.9-15.3-2.8c-4.6-1.9-8.5-4.5-11.8-7.8c-3.3-3.3-5.8-7.2-7.6-11.7s-2.7-9.3-2.7-14.5s0.9-10,2.7-14.5
		s4.3-8.3,7.6-11.6s7.2-5.9,11.8-7.7c4.6-1.9,9.7-2.8,15.3-2.8s10.7,0.9,15.2,2.8c4.6,1.9,8.5,4.5,11.8,7.8s5.8,7.2,7.6,11.6
		c1.8,4.5,2.7,9.3,2.7,14.4C372.3,44.9,371.4,49.8,369.6,54.2z M450.9,75.7h-8.7c-1.3,0-2.4-0.2-3.2-0.6c-0.9-0.4-1.7-1.1-2.6-2.1
		l-33.8-42.8c0.1,1.3,0.2,2.5,0.3,3.7c0,1.2,0.1,2.3,0.1,3.4v38.4h-14.7V3.9h8.8c0.7,0,1.3,0,1.8,0.1s0.9,0.2,1.3,0.4
		c0.4,0.2,0.8,0.4,1.1,0.8c0.4,0.3,0.8,0.8,1.2,1.3l34.1,43.1c-0.2-1.4-0.3-2.7-0.3-4c-0.1-1.3-0.1-2.5-0.1-3.7v-38h14.7L450.9,75.7
		L450.9,75.7z M483.7,71.3c-0.4,1-1.1,1.9-1.8,2.7c-0.8,0.8-1.7,1.3-2.8,1.8c-1.1,0.4-2.2,0.6-3.4,0.6s-2.4-0.2-3.4-0.6
		c-1.1-0.4-2-1-2.7-1.8c-0.8-0.8-1.4-1.7-1.8-2.7s-0.7-2.1-0.7-3.3s0.2-2.3,0.7-3.3c0.4-1,1.1-1.9,1.8-2.7c0.8-0.8,1.7-1.4,2.7-1.8
		c1.1-0.4,2.2-0.7,3.4-0.7s2.3,0.2,3.4,0.7c1.1,0.4,2,1,2.8,1.8s1.4,1.6,1.8,2.7c0.4,1,0.7,2.1,0.7,3.3S484.1,70.2,483.7,71.3z"/>
</g>
</svg>
