<?xml version="1.0" encoding="utf-8"?>
<!-- Generator: Adobe Illustrator 21.0.2, SVG Export Plug-In . SVG Version: 6.00 Build 0)  -->
<svg version="1.1" id="Шар_1" xmlns="http://www.w3.org/2000/svg" xmlns:xlink="http://www.w3.org/1999/xlink" x="0px" y="0px"
	 viewBox="0 0 900 350" style="enable-background:new 0 0 900 350;" xml:space="preserve">
<style type="text/css">
	.st0{display:none;fill:url(#SVGID_1_);}
	.st1{display:none;}
	.st2{display:inline;fill:#180438;}
	.st3{fill:url(#SVGID_2_);}
	.st4{fill:url(#SVGID_3_);}
</style>
<linearGradient id="SVGID_1_" gradientUnits="userSpaceOnUse" x1="113.4885" y1="364.7487" x2="790.9641" y2="-26.392">
	<stop  offset="0" style="stop-color:#FF0096"/>
	<stop  offset="0.9988" style="stop-color:#FFF600"/>
</linearGradient>
<path class="st0" d="M502.1,66.5C616.9,68.3,682.6,48,782.5,45.2c63.9,0,90.7,50,99,138.8c8.3,154.6-101.8,152.7-395.2,137
	C270.8,309.4,65.3,386.7,34.8,205.3C29.2,160.9,14.4-8.5,181,11.9S387.4,64.6,502.1,66.5z"/>
<g class="st1">
	<path class="st2" d="M334.7,170.7c-0.4-1.2-0.8-2.5-1.2-3.8c-0.3,1.4-0.7,2.7-1.1,3.9c-0.4,1.2-0.8,2.2-1.1,3.1l-4.6,13.7h13.8
		l-4.7-13.8C335.5,172.9,335.1,171.9,334.7,170.7z"/>
	<path class="st2" d="M264.9,152.1v59h360v-59H264.9z M306,179.8c-0.8,2.1-2,3.9-3.7,5.4c-1.7,1.5-3.8,2.7-6.3,3.5
		c-2.5,0.8-5.5,1.3-9,1.3H281v16.8h-11.7v-50.3H287c3.5,0,6.6,0.4,9.1,1.3c2.5,0.8,4.6,2,6.3,3.5c1.6,1.5,2.9,3.2,3.6,5.2
		c0.8,2,1.2,4.2,1.2,6.5C307.3,175.4,306.9,177.7,306,179.8z M350,206.7c-1,0-1.8-0.2-2.4-0.7c-0.6-0.5-1.1-1.1-1.4-1.8l-3-8.8
		h-19.1l-3,8.8c-0.3,0.6-0.7,1.2-1.4,1.7c-0.7,0.5-1.5,0.8-2.4,0.8h-9.1l19.5-50.3h11.9l19.5,50.3H350z M385.9,187.6v19.1h-11.7
		v-19.1L356,156.5h10.3c1,0,1.8,0.2,2.4,0.7c0.6,0.5,1.1,1.1,1.5,1.8l7.1,14.6c0.6,1.1,1.1,2.2,1.6,3.2s0.9,2,1.3,2.9
		c0.3-1,0.7-2,1.2-3c0.4-1,1-2.1,1.6-3.2l7-14.6c0.2-0.3,0.4-0.6,0.6-0.9c0.2-0.3,0.5-0.6,0.8-0.8c0.3-0.2,0.7-0.4,1.1-0.6
		c0.4-0.1,0.8-0.2,1.3-0.2h10.3L385.9,187.6z M468.8,206.7h-10.3v-28.9c0-0.7,0-1.4,0.1-2.2c0-0.8,0.1-1.6,0.2-2.4l-13.3,25.8
		c-0.4,0.8-1,1.4-1.7,1.8c-0.7,0.4-1.5,0.6-2.4,0.6h-1.6c-0.9,0-1.7-0.2-2.4-0.6c-0.7-0.4-1.3-1-1.7-1.8l-13.3-25.9
		c0.1,0.8,0.1,1.6,0.2,2.4c0,0.8,0.1,1.5,0.1,2.2v28.9h-10.3v-50.3h8.9c0.5,0,0.9,0,1.3,0s0.7,0.1,1,0.2c0.3,0.1,0.6,0.3,0.8,0.5
		c0.2,0.2,0.5,0.6,0.7,1l12.9,25.5c0.5,0.9,0.9,1.8,1.3,2.7c0.4,0.9,0.8,1.9,1.2,2.9c0.4-1,0.8-2,1.2-3c0.4-1,0.9-1.9,1.4-2.8
		l12.9-25.4c0.2-0.4,0.5-0.8,0.7-1c0.2-0.2,0.5-0.4,0.8-0.5c0.3-0.1,0.6-0.2,1-0.2s0.8,0,1.3,0h8.9V206.7z M515.1,165.4h-20.6v11.7
		h15.8v8.6h-15.8v12h20.6v9h-32.4v-50.3h32.4V165.4z M570.4,206.7h-6.1c-0.9,0-1.6-0.1-2.3-0.4c-0.6-0.3-1.2-0.8-1.8-1.5l-23.7-30
		c0.1,0.9,0.2,1.8,0.2,2.6c0,0.8,0.1,1.6,0.1,2.4v26.9h-10.3v-50.3h6.1c0.5,0,0.9,0,1.3,0.1c0.3,0,0.7,0.1,0.9,0.3
		c0.3,0.1,0.5,0.3,0.8,0.5c0.3,0.2,0.5,0.5,0.9,0.9l23.9,30.2c-0.1-1-0.2-1.9-0.2-2.8c0-0.9-0.1-1.8-0.1-2.6v-26.6h10.3V206.7z
		 M620.6,165.7h-14.1v41h-11.7v-41h-14.1v-9.2h39.9V165.7z"/>
	<path class="st2" d="M293.5,167.3c-0.7-0.7-1.6-1.2-2.7-1.6c-1.1-0.4-2.3-0.6-3.8-0.6H281v15.9h6.1c3,0,5.2-0.7,6.6-2.2
		s2-3.5,2-6.1c0-1.1-0.2-2.2-0.5-3.1C294.7,168.8,294.2,168,293.5,167.3z"/>
</g>
<g class="st1">
	<path class="st2" d="M348.9,168.1c-2.4-2.8-5.4-4.9-8.9-6.3c-3.5-1.5-7.5-2.2-11.9-2.2c-4.5,0-8.5,0.7-12,2.2
		c-3.5,1.5-6.5,3.6-8.9,6.3c-2.4,2.8-4.3,6.1-5.6,10.1c-1.3,4-1.9,8.4-1.9,13.4c0,5,0.6,9.5,1.9,13.5c1.3,4,3.1,7.3,5.6,10.1
		c2.4,2.8,5.4,4.9,8.9,6.3s7.5,2.2,12,2.2c4.5,0,8.4-0.7,11.9-2.2c3.5-1.4,6.4-3.6,8.9-6.3c2.4-2.8,4.3-6.1,5.6-10.1
		c1.3-4,1.9-8.5,1.9-13.5c0-5-0.6-9.4-1.9-13.4C353.2,174.2,351.3,170.8,348.9,168.1z"/>
	<path class="st2" d="M179.8,135.1v113h551v-113H179.8z M258.8,188c-1.6,4.2-4.1,7.8-7.4,10.8c-3.3,3-7.5,5.3-12.6,7
		c-5.1,1.7-11.1,2.5-18,2.5h-12.1v33.6h-23.3V141.4h35.5c7.1,0,13.2,0.8,18.2,2.5c5.1,1.7,9.3,4,12.6,6.9c3.3,2.9,5.7,6.4,7.3,10.4
		c1.6,4,2.3,8.3,2.3,13C261.2,179.2,260.4,183.8,258.8,188z M376.5,211.9c-2.5,6.3-6,11.7-10.6,16.3s-10,8.2-16.5,10.9
		c-6.4,2.6-13.5,3.9-21.3,3.9c-7.8,0-14.9-1.3-21.4-3.9c-6.4-2.6-11.9-6.2-16.5-10.9c-4.6-4.6-8.1-10.1-10.6-16.3
		c-2.5-6.3-3.8-13-3.8-20.3c0-7.3,1.3-14,3.8-20.3c2.5-6.3,6-11.7,10.6-16.3c4.6-4.6,10.1-8.2,16.5-10.8c6.4-2.6,13.6-3.9,21.4-3.9
		c7.8,0,14.9,1.3,21.3,4c6.4,2.6,11.9,6.3,16.5,10.9c4.6,4.6,8.1,10,10.6,16.3c2.5,6.3,3.8,13,3.8,20.2
		C380.2,198.9,379,205.6,376.5,211.9z M505.8,241.9h-21.1l-18.9-62.3c-0.4-1-0.7-2-1-3.2c-0.3-1.2-0.6-2.4-1-3.7
		c-0.3,1.3-0.6,2.5-1,3.7c-0.3,1.2-0.7,2.2-1,3.2l-19.2,62.3h-21.1l-31-100.5H410c2,0,3.7,0.5,5.1,1.4c1.4,0.9,2.2,2.1,2.7,3.7
		l13.8,52.4c0.4,1.7,0.8,3.5,1.2,5.4c0.4,2,0.8,4,1.2,6.1c0.8-4.3,1.8-8.2,3-11.5l16.3-52.4c0.4-1.3,1.3-2.4,2.7-3.5
		c1.4-1,3-1.6,4.9-1.6h6.9c2,0,3.7,0.5,4.9,1.4c1.2,0.9,2.2,2.2,2.8,3.6l16.1,52.4c1.2,3.2,2.2,6.9,3,11c0.4-2.1,0.7-4,1.1-5.8
		c0.4-1.8,0.8-3.5,1.2-5.1l13.8-52.4c0.4-1.3,1.2-2.5,2.6-3.5c1.4-1,3-1.5,5-1.5h18.3L505.8,241.9z M620.1,159.3h-41.2v23.5h31.6
		V200h-31.6V224h41.2v17.9h-64.7V141.4h64.7V159.3z M704.1,241.9c-3.9,0-6.7-1.5-8.4-4.4L679,208.3c-0.8-1.2-1.7-2.1-2.6-2.7
		c-1-0.6-2.3-0.9-4.1-0.9h-5.9v37.2H643V141.4h32.7c7.3,0,13.5,0.7,18.6,2.2c5.1,1.5,9.3,3.6,12.6,6.2c3.2,2.7,5.6,5.8,7.1,9.4
		c1.5,3.6,2.2,7.6,2.2,11.9c0,3.3-0.4,6.3-1.3,9.2c-0.9,2.9-2.2,5.6-3.9,8c-1.7,2.5-3.8,4.7-6.3,6.6c-2.5,1.9-5.4,3.5-8.7,4.8
		c1.5,0.8,2.9,1.8,4.3,2.9c1.3,1.2,2.5,2.6,3.6,4.2l21.4,35H704.1z"/>
	<path class="st2" d="M233.7,163.1c-1.4-1.4-3.2-2.4-5.3-3.1c-2.1-0.7-4.7-1.1-7.6-1.1h-12.1v31.9h12.1c6.1,0,10.4-1.4,13.1-4.3
		c2.7-2.9,4-6.9,4-12.1c0-2.3-0.3-4.4-1-6.3C236.1,166.1,235.1,164.4,233.7,163.1z"/>
	<path class="st2" d="M689,162.6c-2.9-2.5-7.3-3.7-13.3-3.7h-9.4v29.8h9.4c3.2,0,5.9-0.4,8.1-1.2c2.2-0.8,4.1-1.9,5.5-3.3
		c1.4-1.4,2.5-3.1,3.1-5c0.6-1.9,1-4,1-6.2C693.3,168.5,691.9,165,689,162.6z"/>
</g>
<linearGradient id="SVGID_2_" gradientUnits="userSpaceOnUse" x1="96.4885" y1="379.7487" x2="773.9641" y2="-11.392">
	<stop  offset="3.814697e-04" style="stop-color:#31EFFC"/>
	<stop  offset="0.9988" style="stop-color:#908AF4"/>
</linearGradient>
<path class="st3" d="M485.1,81.5C599.9,83.3,665.6,63,765.5,60.2c63.9,0,90.7,50,99,138.8c8.3,154.6-101.8,152.7-395.2,137
	C253.8,324.4,48.3,401.7,17.8,220.3C12.2,175.9-2.6,6.5,164,26.9S370.4,79.6,485.1,81.5z"/>
<linearGradient id="SVGID_3_" gradientUnits="userSpaceOnUse" x1="417.0028" y1="203.274" x2="834.0057" y2="-37.4827">
	<stop  offset="3.814697e-04" style="stop-color:#8C36F3"/>
	<stop  offset="0.9988" style="stop-color:#908AF4"/>
</linearGradient>
<path class="st4" d="M656.3,30.5c72.1,0.9,113.4-9.4,176.2-10.8c40.1,0,57,25.3,62.2,70.3c5.2,78.3-64,77.3-248.3,69.4
	c-135.5-5.9-264.6,33.3-283.8-58.6c-3.5-22.5-12.8-108.3,91.9-98S584.2,29.6,656.3,30.5z"/>
<g class="st1">
	<path class="st2" d="M389.5,160.4c-0.6-1.7-1.1-3.5-1.7-5.5c-0.5,2-1,3.9-1.6,5.6c-0.6,1.7-1.1,3.2-1.6,4.4l-6.6,19.6h19.7
		l-6.7-19.7C390.6,163.6,390,162.1,389.5,160.4z"/>
	<path class="st2" d="M579.9,159.2c-1.7-2-3.8-3.5-6.3-4.5c-2.5-1.1-5.3-1.6-8.5-1.6c-3.2,0-6.1,0.5-8.6,1.6
		c-2.5,1.1-4.6,2.6-6.4,4.5c-1.7,2-3,4.4-4,7.2c-0.9,2.8-1.4,6-1.4,9.6c0,3.6,0.5,6.8,1.4,9.6c0.9,2.8,2.2,5.2,4,7.2
		c1.7,2,3.8,3.5,6.4,4.5c2.5,1,5.4,1.6,8.6,1.6c3.2,0,6-0.5,8.5-1.6c2.5-1,4.6-2.5,6.3-4.5c1.7-2,3-4.4,4-7.2
		c0.9-2.8,1.4-6.1,1.4-9.6c0-3.5-0.5-6.7-1.4-9.6C582.9,163.6,581.6,161.2,579.9,159.2z"/>
	<path class="st2" d="M228.4,135.1v82h492v-82H228.4z M283,198.3c-1.1,2.9-2.8,5.4-5,7.6c-2.2,2.2-4.9,3.8-8.1,5.1
		c-3.2,1.2-6.8,1.8-10.9,1.8c-2.2,0-4.5-0.2-6.8-0.7c-2.3-0.5-4.6-1.1-6.7-1.9c-2.2-0.8-4.2-1.8-6.1-3c-1.9-1.1-3.6-2.4-5-3.8
		l4.9-7.8c0.4-0.6,0.9-1,1.6-1.4c0.6-0.4,1.3-0.6,2.1-0.6c1,0,2,0.3,3,0.9c1,0.6,2.1,1.3,3.4,2.1c1.3,0.8,2.7,1.4,4.4,2.1
		c1.6,0.6,3.6,0.9,5.8,0.9c3,0,5.4-0.7,7-2c1.7-1.3,2.5-3.4,2.5-6.3c0-1.7-0.5-3-1.4-4.1c-0.9-1.1-2.1-1.9-3.6-2.6
		c-1.5-0.7-3.2-1.3-5.1-1.8c-1.9-0.5-3.9-1.1-5.9-1.7c-2-0.6-4-1.4-5.9-2.4c-1.9-0.9-3.6-2.2-5.1-3.7c-1.5-1.5-2.7-3.4-3.6-5.7
		c-0.9-2.3-1.4-5.1-1.4-8.4c0-2.7,0.5-5.3,1.6-7.9s2.7-4.8,4.8-6.8c2.1-2,4.7-3.6,7.7-4.8c3.1-1.2,6.6-1.8,10.5-1.8
		c2.2,0,4.3,0.2,6.4,0.5c2.1,0.3,4.1,0.9,5.9,1.5c1.9,0.7,3.6,1.5,5.2,2.4c1.6,0.9,3.1,2,4.4,3.2l-4.1,7.7c-0.5,0.8-1,1.4-1.6,1.8
		s-1.2,0.6-2.1,0.6c-0.8,0-1.6-0.2-2.4-0.7c-0.9-0.5-1.9-1-3-1.6c-1.1-0.6-2.4-1.1-3.8-1.6c-1.4-0.5-3-0.7-4.8-0.7
		c-3.1,0-5.4,0.7-7,2c-1.5,1.3-2.3,3.1-2.3,5.4c0,1.4,0.5,2.6,1.4,3.6c0.9,1,2.1,1.8,3.6,2.5c1.5,0.7,3.2,1.3,5.1,1.9
		c1.9,0.6,3.9,1.2,5.9,1.9c2,0.7,4,1.5,5.9,2.5c1.9,1,3.6,2.2,5.1,3.6c1.5,1.5,2.7,3.3,3.6,5.4c0.9,2.1,1.4,4.7,1.4,7.7
		C284.7,192.3,284.1,195.4,283,198.3z M332,212h-16.7v-58.6h-20.2v-13.2h57.1v13.2H332V212z M411.2,212c-1.4,0-2.6-0.3-3.5-1
		s-1.6-1.5-2-2.6l-4.2-12.5h-27.3l-4.2,12.5c-0.4,0.9-1,1.7-1.9,2.5s-2.1,1.1-3.5,1.1h-13l27.8-71.8h17l27.8,71.8H411.2z
		 M480.5,153.4h-20.2V212h-16.7v-58.6h-20.2v-13.2h57.1V153.4z M511.8,212h-16.8v-71.8h16.8V212z M599.6,190.5
		c-1.8,4.5-4.3,8.4-7.6,11.7s-7.2,5.9-11.8,7.8c-4.6,1.9-9.7,2.8-15.2,2.8c-5.6,0-10.7-0.9-15.3-2.8c-4.6-1.9-8.5-4.5-11.8-7.8
		c-3.3-3.3-5.8-7.2-7.6-11.7c-1.8-4.5-2.7-9.3-2.7-14.5c0-5.2,0.9-10,2.7-14.5c1.8-4.5,4.3-8.3,7.6-11.6c3.3-3.3,7.2-5.9,11.8-7.7
		c4.6-1.9,9.7-2.8,15.3-2.8c5.6,0,10.7,0.9,15.2,2.8c4.6,1.9,8.5,4.5,11.8,7.8c3.3,3.3,5.8,7.2,7.6,11.6c1.8,4.5,2.7,9.3,2.7,14.4
		C602.3,181.2,601.4,186.1,599.6,190.5z M680.9,212h-8.7c-1.3,0-2.4-0.2-3.2-0.6c-0.9-0.4-1.7-1.1-2.6-2.1l-33.8-42.8
		c0.1,1.3,0.2,2.5,0.3,3.7c0,1.2,0.1,2.3,0.1,3.4V212h-14.7v-71.8h8.8c0.7,0,1.3,0,1.8,0.1c0.5,0.1,0.9,0.2,1.3,0.4
		c0.4,0.2,0.8,0.4,1.1,0.8c0.4,0.3,0.8,0.8,1.2,1.3l34.1,43.1c-0.2-1.4-0.3-2.7-0.3-4c-0.1-1.3-0.1-2.5-0.1-3.7v-38h14.7V212z
		 M713.7,207.6c-0.4,1-1.1,1.9-1.8,2.7c-0.8,0.8-1.7,1.3-2.8,1.8c-1.1,0.4-2.2,0.6-3.4,0.6c-1.2,0-2.4-0.2-3.4-0.6
		c-1.1-0.4-2-1-2.7-1.8c-0.8-0.8-1.4-1.7-1.8-2.7c-0.4-1-0.7-2.1-0.7-3.3s0.2-2.3,0.7-3.3c0.4-1,1.1-1.9,1.8-2.7
		c0.8-0.8,1.7-1.4,2.7-1.8c1.1-0.4,2.2-0.7,3.4-0.7c1.2,0,2.3,0.2,3.4,0.7c1.1,0.4,2,1,2.8,1.8c0.8,0.8,1.4,1.6,1.8,2.7
		c0.4,1,0.7,2.1,0.7,3.3S714.1,206.5,713.7,207.6z"/>
</g>
</svg>
