<?xml version="1.0" encoding="utf-8"?>
<!-- Generator: Adobe Illustrator 21.0.2, SVG Export Plug-In . SVG Version: 6.00 Build 0)  -->
<svg version="1.1" id="Шар_1" xmlns="http://www.w3.org/2000/svg" xmlns:xlink="http://www.w3.org/1999/xlink" x="0px" y="0px"
	 viewBox="0 0 2500 2500" style="enable-background:new 0 0 2500 2500;" xml:space="preserve">
<style type="text/css">
	.st0{fill:#FFFFFF;}
	.st1{fill:#CFCFCF;}
</style>
<g>
	<path class="st0" d="M0,0h2500v2500H0V0z"/>
	<path class="st1" d="M275.4,1915.7c465.3-199.4,1118.2-380.2,1982.9-199.2l9.1-219.3c-912.3-99.6-1566.9,191-1991.9,396.9
		L275.4,1915.7L275.4,1915.7z"/>
	<path class="st1" d="M762,1337.4l201.7-664.9h179.9l-201.7,664.9H762z M681.5,672.6L519.7,954.5c-41.2,73.8-65.3,111.1-76.9,157.8
		h-2.5c2.9-59.1-5.4-131.7-6.2-172.8l-17.9-266.9H113.4l-3.1,17.9c77.8,0,124,39.1,136.7,119l59,527.8h186.4l376.9-664.8H681.5z
		 M2080.9,1337.4l-5-98.9l-224.7-0.2l-46,99.1h-195.4l354.2-663.7h239.8l60,663.7L2080.9,1337.4L2080.9,1337.4L2080.9,1337.4z
		 M2060.2,945.1c-2-49.1-3.7-115.8-0.3-156.2h-2.7c-10.9,33-58,132.1-78.7,180.9l-66.9,145.8h157.8L2060.2,945.1L2060.2,945.1z
		 M1332.5,1356.3c-127,0-211.3-40.3-271.5-76.2l85.7-130.9c54,30.2,96.5,65.1,194.1,65.1c31.4,0,61.6-8.2,78.8-37.9
		c25-43.3-5.8-66.5-76.1-106.3l-34.7-22.6c-104.2-71.2-149.3-138.8-100.2-256.9c31.4-75.5,114.2-132.7,250.7-132.7
		c94.2,0,182.5,40.7,233.9,80.5L1594.7,854c-50.2-40.6-91.8-61.2-139.5-61.2c-38,0-66.8,14.6-76.8,34.4
		c-18.7,37.1,6.1,62.4,60.8,96.4l41.3,26.3c126.5,79.8,156.6,163.5,124.9,241.7C1551,1326.2,1444.2,1356.3,1332.5,1356.3
		L1332.5,1356.3z M2313.1,775.3h-11.9v-72.1h27.4c17.4,0,26.3,6.1,26.3,20.7c0,13-8,18.4-18.8,19.7l20.2,31.7h-13.4l-18.6-30.8
		h-11.1V775.3L2313.1,775.3z M2326.3,734.4c8.9,0,16.7-0.9,16.7-11.3c0-8.7-8.5-9.8-15.7-9.8h-14.3v21.1H2326.3z M2326,803.1
		c-37.4,0-64.1-28-64.1-65.1c0-39.2,29.6-65.1,64.1-65.1c34.1,0,63.7,25.9,63.7,65.1C2389.7,777.2,2360.1,803.1,2326,803.1z
		 M2326,684.2c-28.2,0-50.1,22.1-50.1,53.8c0,29.6,19.2,53.8,50.1,53.8c27.9,0,49.8-21.9,49.8-53.8
		C2375.8,706.3,2353.8,684.2,2326,684.2z"/>
</g>
</svg>
