<svg xmlns="http://www.w3.org/2000/svg" width="69.063" height="37.813" viewBox="0 0 69.063 37.813">
  <metadata><?xpacket begin="﻿" id="W5M0MpCehiHzreSzNTczkc9d"?>
<x:xmpmeta xmlns:x="adobe:ns:meta/" x:xmptk="Adobe XMP Core 5.6-c138 79.159824, 2016/09/14-01:09:01        ">
   <rdf:RDF xmlns:rdf="http://www.w3.org/1999/02/22-rdf-syntax-ns#">
      <rdf:Description rdf:about=""/>
   </rdf:RDF>
</x:xmpmeta>
                                                                                                    
                                                                                                    
                                                                                                    
                                                                                                    
                                                                                                    
                                                                                                    
                                                                                                    
                                                                                                    
                                                                                                    
                                                                                                    
                                                                                                    
                                                                                                    
                                                                                                    
                                                                                                    
                                                                                                    
                                                                                                    
                                                                                                    
                                                                                                    
                                                                                                    
                                                                                                    
                           
<?xpacket end="w"?></metadata>
<defs>
    <style>
      .cls-1 {
        fill: #cfcfcf;
        fill-rule: evenodd;
      }
    </style>
  </defs>
  <path id="visa" class="cls-1" d="M5,38A97.24,97.24,0,0,1,65.08,32.011l0.275-6.595C37.714,22.42,17.881,31.158,5,37.35V38H5ZM19.745,20.61l6.11-20h5.452l-6.11,20H19.745ZM17.308,0.62L12.4,9.1a20.447,20.447,0,0,0-2.329,4.744H10c0.087-1.779-.163-3.962-0.187-5.2L9.271,0.62H0.094L0,1.158a3.8,3.8,0,0,1,4.141,3.58L5.93,20.61h5.648L23,0.62h-5.69ZM59.7,20.61l-0.151-2.974-6.808-.006-1.392,2.979H45.435L56.167,0.652h7.265L65.25,20.609H59.7ZM59.079,8.815a45.53,45.53,0,0,1-.01-4.7H58.988c-0.331.992-1.757,3.973-2.383,5.44L54.577,13.94h4.78L59.079,8.815h0ZM37.03,21.178A15.331,15.331,0,0,1,28.8,18.886l2.6-3.936c1.637,0.908,2.922,1.957,5.88,1.957a2.537,2.537,0,0,0,2.388-1.139c0.758-1.3-.175-2-2.3-3.2l-1.052-.678c-3.157-2.141-4.522-4.175-3.036-7.725,0.951-2.27,3.459-3.992,7.6-3.992A12.263,12.263,0,0,1,47.96,2.6L44.974,6.073a6.657,6.657,0,0,0-4.225-1.839,2.548,2.548,0,0,0-2.326,1.034c-0.568,1.117.184,1.878,1.843,2.9l1.25,0.79c3.833,2.4,4.746,4.915,3.785,7.267-1.652,4.049-4.887,4.953-8.271,4.953h0ZM66.741,3.707H66.382V1.539H67.21c0.527,0,.8.183,0.8,0.623a0.556,0.556,0,0,1-.57.591l0.612,0.953H67.643L67.079,2.78H66.741V3.707h0Zm0.4-1.23c0.27,0,.506-0.026.506-0.341,0-.261-0.258-0.293-0.474-0.293H66.74V2.476h0.4ZM67.131,4.545A1.892,1.892,0,0,1,65.19,2.586a1.936,1.936,0,1,1,3.872,0A1.9,1.9,0,0,1,67.131,4.545Zm0-3.576a1.525,1.525,0,0,0-1.519,1.618,1.517,1.517,0,1,0,3.028,0A1.523,1.523,0,0,0,67.131.969Z" transform="translate(0 -0.188)"/>
</svg>
