<?xml version="1.0" encoding="utf-8"?>
<!-- Generator: Adobe Illustrator 21.0.2, SVG Export Plug-In . SVG Version: 6.00 Build 0)  -->
<svg version="1.1" id="Шар_1" xmlns="http://www.w3.org/2000/svg" xmlns:xlink="http://www.w3.org/1999/xlink" x="0px" y="0px"
	 viewBox="0 0 200 140" style="enable-background:new 0 0 200 140;" xml:space="preserve">
<style type="text/css">
	.st0{fill:#FFFFFF;}
	.st1{fill:#CCC8F0;}
	.st2{fill:#F1F4F5;}
</style>
<g>
	<g>
		<path class="st0" d="M165.4,105l-13.2-4.7c11-30.9-4.4-64.7-34.2-75.3s-63.1,5.9-74.1,36.8L30.6,57c13.6-38.2,54.9-58.5,92-45.3
			S179,66.8,165.4,105z"/>
	</g>
	<path class="st1" d="M179.8,96.7l-2.7-1.1c-2.3-0.9-5,0.2-5.9,2.5l-7.8,19.4c-0.9,2.3,0.2,5,2.5,5.9l2.7,1.1c2.3,0.9,5-0.2,5.9-2.5
		l7.8-19.4C183.3,100.3,182.1,97.6,179.8,96.7z"/>
	<path class="st0" d="M176,87.6c0,0-6.2-3.6-6.3-4.7s-19,43-17.1,42.7c1.8-0.4,7.4,1.9,7.4,1.9c2.8,1.1,6-0.2,7.1-3l12-29.8
		C180.2,91.9,178.8,88.7,176,87.6z"/>
	<path class="st1" d="M17.5,67.6l2.8,0.9c2.4,0.7,5-0.6,5.7-3l6.2-20c0.7-2.4-0.6-5-3-5.7L26.3,39c-2.4-0.7-5,0.6-5.7,3l-6.2,20
		C13.7,64.3,15.1,66.9,17.5,67.6z"/>
	<path class="st0" d="M21.7,77.3c0,0,6.5,3,6.6,4.1c0.1,1.1,15.3-44.5,13.6-44c-1.8,0.5-7.5-1.3-7.5-1.3c-2.9-0.9-5.9,0.7-6.8,3.6
		l-9.5,30.7C17.2,73.3,18.8,76.4,21.7,77.3z"/>
	<path class="st2" d="M148.1,126.5L148.1,126.5c3.1,1.2,6.6-0.3,7.8-3.3l14.9-37.1c1.2-3.1-0.3-6.6-3.3-7.8h0
		c-3.1-1.2-6.6,0.3-7.8,3.3l-14.9,37.1C143.6,121.8,145.1,125.3,148.1,126.5z"/>
	<path class="st2" d="M30.5,84.7L30.5,84.7c3.2,1,6.5-0.8,7.5-4l11.8-38.2c1-3.2-0.8-6.5-4-7.5l0,0c-3.2-1-6.5,0.8-7.5,4L26.5,77.2
		C25.5,80.4,27.3,83.7,30.5,84.7z"/>
	<g>
		<path class="st0" d="M124.3,113.2L57.8,89.5C46.2,85.4,40,72.4,44.2,60.8l0,0C48.3,49.1,61.2,43,72.9,47.1l66.5,23.7
			c11.7,4.1,17.8,17.1,13.7,28.7l0,0C148.9,111.2,136,117.3,124.3,113.2z"/>
		<path class="st0" d="M122.3,118.8L55.8,95.2C41,89.9,33.2,73.6,38.5,58.8s21.6-22.6,36.4-17.3l66.5,23.7
			c14.8,5.3,22.6,21.6,17.3,36.4C153.5,116.3,137.1,124.1,122.3,118.8z M70.9,52.8c-8.6-3-18,1.4-21.1,10s1.4,18,10,21.1l66.5,23.7
			c8.6,3,18-1.4,21.1-10c3-8.6-1.4-18-10-21.1L70.9,52.8z"/>
	</g>
	<path class="st1" d="M124.3,113.2L57.8,89.5C46.2,85.4,40,72.4,44.2,60.8l0,0C48.3,49.1,61.2,43,72.9,47.1l66.5,23.7
		c11.7,4.1,17.8,17.1,13.7,28.7l0,0C148.9,111.2,136,117.3,124.3,113.2z"/>
	<g>
		<path class="st0" d="M65.7,77.6c-0.1,0.3,0,0.7,0.4,0.8c0.1,0,0.2,0.1,0.4,0c2.5-0.4,4.5-0.2,6.3,0.2c-1.3-1.2-3.5-2.7-5.9-4
			C66.4,75.8,65.8,77.2,65.7,77.6z"/>
		<path class="st0" d="M65.1,65.2C65.1,65.2,65.1,65.2,65.1,65.2L65.1,65.2L65.1,65.2c0.4,0.1,0.6,0.2,0.9,0.3
			c2.1,0.8,4.2,1.9,6,3.1c0.2,0.1,0.4,0.2,0.5,0.4c0.6-1.4,1.3-3.3,1.8-4.7c0,0,0,0,0-0.1c0-0.1,0-0.2,0-0.2c0-0.1,0-0.2-0.1-0.3
			c0,0,0,0,0,0c0,0,0,0,0,0c-0.1-0.1-0.1-0.1-0.2-0.2c0,0,0,0,0,0c0,0,0,0,0,0c0,0,0,0-0.1,0c0,0-0.1,0-0.1,0c0,0-0.1,0-0.1,0
			C70.6,63.1,66.7,64.3,65.1,65.2C65,65.2,65,65.2,65.1,65.2C65,65.2,65,65.2,65.1,65.2C65,65.2,65.1,65.2,65.1,65.2z"/>
		<path class="st0" d="M76.4,74.8C76.4,74.8,76.4,74.8,76.4,74.8C76.4,74.8,76.4,74.8,76.4,74.8c0.1-0.2,0.1-0.5,0.1-0.7
			c0,0,0,0,0,0c0,0,0,0,0,0c0,0,0-0.1,0-0.1c0,0,0,0,0,0c0-0.3-0.2-0.6-0.4-0.9c0,0,0-0.1-0.1-0.1c-0.1-0.1-0.2-0.2-0.3-0.4
			c-0.1-0.1-0.2-0.2-0.2-0.2c0,0-0.1-0.1-0.1-0.1C75.2,72.1,75.1,72,75,72c-0.1-0.1-0.2-0.2-0.2-0.2c0,0-0.1-0.1-0.1-0.1
			c-0.1-0.1-0.3-0.2-0.4-0.4c-0.1-0.1-0.2-0.1-0.2-0.2c-0.1-0.1-0.2-0.1-0.2-0.2c-0.1-0.1-0.1-0.1-0.2-0.2c0,0-0.1,0-0.1-0.1
			c-0.1-0.1-0.1-0.1-0.2-0.2c-0.1-0.1-0.1-0.1-0.2-0.2c0,0-0.1-0.1-0.1-0.1c-0.2-0.2-0.5-0.4-0.7-0.5c-1.8-1.3-4-2.6-6.5-3.5
			c-0.3-0.1-0.5-0.2-0.8-0.3c0,0,0,0,0,0c0,0,0,0,0,0c0,0,0,0,0,0s0,0,0,0c0,0,0,0,0,0c0,0,0,0,0,0c0,0,0,0,0,0c0,0,0,0,0,0
			c0,0,0,0,0,0c0,0,0,0,0,0c0,0,0,0,0,0c0,0,0,0,0,0c0,0,0,0,0,0c-0.2,0-0.4,0.2-0.5,0.4c0,0,0,0,0,0l0,0c0,0,0,0,0,0l0,0
			c-0.2,0.6-1.8,4.7-2.1,5.5l0,0c0,0,0,0.1,0,0.1c0,0,0,0,0,0c0,0,0,0,0,0c0,0,0,0,0,0c0,0,0,0,0,0c0,0,0,0,0,0c0,0,0,0,0,0
			c0,0,0,0,0,0c0,0,0,0,0,0c0,0,0,0,0,0c0,0,0,0,0,0c0,0,0,0,0,0c0,0,0,0,0,0c0,0,0,0,0,0c0,0,0,0,0,0.1c0,0,0,0,0,0c0,0,0,0,0,0
			c0,0,0,0,0,0c0,0,0,0,0,0c0,0,0,0,0,0l0,0c0,0,0,0,0,0c0,0,0,0,0,0c0,0,0,0,0,0c0.6,0.2,1.2,0.4,1.9,0.6c0.3,0.1,0.6,0.2,1,0.4
			c0.1,0,0.2,0.1,0.3,0.1c0.2,0.1,0.5,0.2,0.7,0.3c0.1,0.1,0.2,0.1,0.4,0.2c0.1,0.1,0.2,0.1,0.4,0.2c0.1,0,0.1,0.1,0.2,0.1
			c2.9,1.5,5.5,3.4,6.8,4.8c0,0,0.1,0.1,0.1,0.1c0,0,0,0,0,0c0,0,0,0,0,0c0,0,0,0,0,0l0,0l0,0c0,0,0.1,0,0.1,0c0.1,0,0.2,0,0.2,0
			c0,0,0,0,0,0c0,0,0,0,0,0c0,0,0,0,0,0c0,0,0,0,0.1,0c0,0,0,0,0,0c0,0,0.1,0,0.1,0c0,0,0,0,0,0c0,0,0,0,0,0c0,0,0,0,0,0
			c0,0,0,0,0,0c0,0,0,0,0,0c0,0,0,0,0,0c0,0,0,0,0,0c0,0,0,0,0,0c0,0,0,0,0-0.1c0,0,0,0,0,0c0,0,0,0,0,0c0,0,0,0,0,0c0,0,0,0,0,0
			c0,0,0,0,0,0c0,0,0,0,0,0l0,0C75.2,77.7,76.1,75.4,76.4,74.8z"/>
	</g>
	<path class="st2" d="M126.7,92.8L89,79.4c-0.8-0.3-1.2-1.1-0.9-1.9l0,0c0.3-0.8,1.1-1.2,1.9-0.9L127.7,90c0.8,0.3,1.2,1.1,0.9,1.9
		v0C128.3,92.7,127.5,93.1,126.7,92.8z"/>
	<path class="st2" d="M139,97.2l-7.5-2.7c-0.8-0.3-1.2-1.1-0.9-1.9l0,0c0.3-0.8,1.1-1.2,1.9-0.9l7.5,2.7c0.8,0.3,1.2,1.1,0.9,1.9
		l0,0C140.6,97,139.7,97.4,139,97.2z"/>
</g>
</svg>
